<?xml version="1.0" encoding="UTF-8"?>
<svg version="1.1" xmlns="http://www.w3.org/2000/svg" width="1024" height="1024">
<path d="M0 0 C1.2068042 0.08362793 2.4136084 0.16725586 3.65698242 0.25341797 C12.65844114 0.94497399 21.45937883 2.18709323 30.31567383 3.92871094 C35.21800553 4.88751802 39.68995148 5.45453814 44.6875 5.25 C45.0175 5.91 45.3475 6.57 45.6875 7.25 C47.89998022 8.12380402 47.89998022 8.12380402 50.62890625 8.84375 C51.67554443 9.14651855 52.72218262 9.44928711 53.80053711 9.76123047 C54.93885986 10.08752441 56.07718262 10.41381836 57.25 10.75 C87.85086382 19.86802368 118.37592217 33.92138948 143.0859375 54.44921875 C145.70832325 56.62943052 145.70832325 56.62943052 149.6875 56.25 C151.574277 54.88174429 151.574277 54.88174429 153.2890625 52.96875 C153.94390625 52.29199219 154.59875 51.61523438 155.2734375 50.91796875 C155.94632813 50.20253906 156.61921875 49.48710937 157.3125 48.75 C158.65439056 47.33949004 160.0005335 45.93300934 161.3515625 44.53125 C161.94404785 43.90283203 162.5365332 43.27441406 163.14697266 42.62695312 C164.6875 41.25 164.6875 41.25 166.6875 41.25 C171.70486375 53.87313343 176.32775031 66.59504311 180.75 79.4375 C182.05059264 83.20279393 183.35423028 86.96702135 184.66015625 90.73046875 C184.98932037 91.67912811 185.3184845 92.62778748 185.65762329 93.60519409 C187.98688923 100.2947733 190.37987274 106.95922172 192.80859375 113.61328125 C193.13739029 114.5166069 193.46618683 115.41993256 193.8049469 116.35063171 C195.37849286 120.6717885 196.96126526 124.98918291 198.55883789 129.30151367 C199.12294994 130.84669963 199.68669194 132.39202076 200.25 133.9375 C200.51376938 134.63857376 200.77753876 135.33964752 201.04930115 136.06196594 C202.80105352 140.90933944 202.80105352 140.90933944 201.6875 144.25 C200.28902832 143.7535498 200.28902832 143.7535498 198.86230469 143.24707031 C181.24762207 137.00000841 163.61248235 130.82808241 145.875 124.9375 C145.12883423 124.68940582 144.38266846 124.44131165 143.6138916 124.18569946 C136.1629639 121.70952879 128.70620737 119.25255368 121.23828125 116.828125 C120.11977783 116.46243408 119.00127441 116.09674316 117.84887695 115.7199707 C115.81443543 115.05554463 113.7779522 114.39732134 111.73901367 113.74682617 C110.85576416 113.45783447 109.97251465 113.16884277 109.0625 112.87109375 C108.30710937 112.6280249 107.55171875 112.38495605 106.7734375 112.13452148 C104.43414796 111.14256853 102.65579383 109.84450726 100.6875 108.25 C101.0906543 107.76120361 101.49380859 107.27240723 101.90917969 106.76879883 C103.75232919 104.53367569 105.59491901 102.29809182 107.4375 100.0625 C108.07171875 99.29357422 108.7059375 98.52464844 109.359375 97.73242188 C110.58985822 96.23917921 111.8171833 94.74332736 113.04101562 93.24462891 C114.39845915 91.60015773 115.79571308 89.98863325 117.203125 88.38671875 C117.69296875 87.68160156 118.1828125 86.97648437 118.6875 86.25 C117.55891847 82.86425542 117.05768238 82.55015498 114.171875 80.71875 C113.42647461 80.24348877 112.68107422 79.76822754 111.91308594 79.27856445 C110.6876709 78.52192505 110.6876709 78.52192505 109.4375 77.75 C108.16181152 76.95758911 108.16181152 76.95758911 106.86035156 76.14916992 C90.1978782 65.94135033 73.07115183 57.85662488 54.6875 51.25 C53.97851562 50.98993164 53.26953125 50.72986328 52.5390625 50.46191406 C-1.07171493 31.05761159 -64.10320745 36.53587439 -115.1875 60.4375 C-141.57205663 73.28935446 -165.76694713 92.46898827 -184.3125 115.25 C-184.71001465 115.7337207 -185.1075293 116.21744141 -185.51708984 116.71582031 C-192.44682043 125.18521012 -198.57083942 133.9410355 -204.3125 143.25 C-204.83199219 144.04148437 -205.35148437 144.83296875 -205.88671875 145.6484375 C-219.80109273 167.37773386 -226.8737469 193.10776525 -231.3125 218.25 C-231.51166016 219.32967041 -231.51166016 219.32967041 -231.71484375 220.43115234 C-241.00664886 272.69755611 -226.05528754 329.33028198 -196.22460938 372.51416016 C-192.34034203 378.00074538 -188.21059802 383.22428433 -183.73852539 388.24365234 C-181.93360225 390.27174088 -180.39358743 392.08355739 -179.19921875 394.53515625 C-178.37566502 396.61641377 -178.37566502 396.61641377 -175.3125 397.25 C-173.83984375 398.78125 -173.83984375 398.78125 -172.25 400.75 C-159.65893177 415.47426574 -142.47829566 428.33699071 -125.3125 437.25 C-124.6525 437.25 -123.9925 437.25 -123.3125 437.25 C-122.3047501 438.24218957 -121.30570245 439.24324835 -120.3125 440.25 C-117.74402209 441.60046652 -115.19734931 442.85718108 -112.5625 444.0625 C-111.80026123 444.4136084 -111.03802246 444.7647168 -110.25268555 445.12646484 C-107.94459827 446.17993275 -105.63026664 447.2180239 -103.3125 448.25 C-102.68230957 448.53311035 -102.05211914 448.8162207 -101.40283203 449.10791016 C-74.66762821 460.96324001 -44.71399958 465.70826459 -15.625 465.5625 C-14.84257935 465.56034485 -14.06015869 465.5581897 -13.25402832 465.55596924 C8.07613317 465.46218288 33.40351327 464.2319755 52.6875 454.25 C54.34929652 453.69606783 56.01910277 453.16101779 57.7109375 452.70703125 C65.09651484 450.6827451 71.84124445 447.64283461 78.6875 444.25 C79.39052246 443.90582031 80.09354492 443.56164062 80.81787109 443.20703125 C102.71107346 432.40493183 124.76930881 418.1016248 140.6875 399.25 C140.6875 398.59 140.6875 397.93 140.6875 397.25 C141.40808594 396.82976562 142.12867188 396.40953125 142.87109375 395.9765625 C146.14153347 393.97166048 148.33076817 391.53687379 150.75 388.625 C151.24290527 388.07175049 151.73581055 387.51850098 152.24365234 386.94848633 C155.08233676 383.65295537 157.04080818 380.67361641 158.62890625 376.61328125 C161.02736442 371.14978043 163.17146951 366.98513095 168.6875 364.25 C181.85618501 361.49127979 196.38320156 363.24554183 209.6875 364.25 C210.0175 364.91 210.3475 365.57 210.6875 366.25 C209.66620041 368.56555913 208.58924901 370.7244602 207.375 372.9375 C207.01325684 373.60378418 206.65151367 374.27006836 206.27880859 374.95654297 C199.53963728 387.13856092 191.43954387 398.44247797 182.6875 409.25 C182.24744629 409.79446777 181.80739258 410.33893555 181.35400391 410.89990234 C169.87659049 424.97071057 157.11195801 438.19053442 142.6875 449.25 C141.76839844 449.99765625 140.84929687 450.7453125 139.90234375 451.515625 C111.15917383 474.51016094 77.4965528 490.89298936 41.6875 499.25 C40.84912598 499.44819336 40.01075195 499.64638672 39.14697266 499.85058594 C-24.75226992 514.63780578 -96.05457322 501.63431263 -151.56958008 467.046875 C-179.33271289 449.37553791 -203.48680721 427.49160886 -223.3125 401.25 C-223.72854492 400.70682129 -224.14458984 400.16364258 -224.57324219 399.60400391 C-232.56206406 389.12223881 -239.05937683 377.83380301 -245.3125 366.25 C-245.68616699 365.56695801 -246.05983398 364.88391602 -246.44482422 364.18017578 C-260.66112914 337.76874477 -268.75153687 305.96908371 -271.3125 276.25 C-271.42335938 275.02539062 -271.53421875 273.80078125 -271.6484375 272.5390625 C-276.75208159 207.84692522 -257.68848182 143.43079076 -216.3125 93.25 C-213.79028819 90.37505782 -211.2278031 87.54817397 -208.625 84.74609375 C-206.57592081 82.53433428 -204.59050519 80.28577724 -202.625 78 C-195.8737499 70.25686007 -195.8737499 70.25686007 -192.3125 67.25 C-191.6525 67.25 -190.9925 67.25 -190.3125 67.25 C-190.3125 66.59 -190.3125 65.93 -190.3125 65.25 C-188.3984375 63.47265625 -188.3984375 63.47265625 -185.6875 61.3125 C-184.676875 60.50683594 -183.66625 59.70117188 -182.625 58.87109375 C-181.81095703 58.22889893 -181.81095703 58.22889893 -180.98046875 57.57373047 C-179.32878054 56.26292053 -177.69457737 54.9327699 -176.0625 53.59765625 C-167.24821492 46.44975342 -157.96489581 40.20801263 -148.3125 34.25 C-147.5191626 33.75733643 -146.7258252 33.26467285 -145.90844727 32.75708008 C-115.04521961 13.87107469 -77.21889322 3.05860312 -41.3125 0.25 C-40.61157227 0.19360352 -39.91064453 0.13720703 -39.18847656 0.07910156 C-26.07107295 -0.94295524 -13.12932241 -0.91516082 0 0 Z " fill="#36AD7C" transform="translate(491.3125,258.75)"/>
<path d="M0 0 C0.16813487 4.56244714 0.33425255 9.12496556 0.5 13.6875 C0.57154297 15.62786133 0.57154297 15.62786133 0.64453125 17.60742188 C0.68964844 18.85458984 0.73476563 20.10175781 0.78125 21.38671875 C0.8440918 23.10701294 0.8440918 23.10701294 0.90820312 24.86206055 C0.98763749 27.57740611 1.01779658 30.28379708 1 33 C1.66 33.33 2.32 33.66 3 34 C2.67 34.99 2.34 35.98 2 37 C-2.57509649 38.16757837 -7.05342786 38.09620379 -11.73754883 38.02172852 C-12.60634674 38.01212097 -13.47514465 38.00251343 -14.37026978 37.99261475 C-17.23260852 37.95971975 -20.09479007 37.91935137 -22.95703125 37.87890625 C-24.94528149 37.85459585 -26.93353749 37.83075275 -28.92179871 37.80735779 C-34.14804667 37.74460845 -39.37419223 37.67551593 -44.6003418 37.60510254 C-49.93598783 37.53433639 -55.27170631 37.46956901 -60.60742188 37.40429688 C-71.07169421 37.27540249 -81.53586817 37.13980688 -92 37 C-91.505 38.98 -91.505 38.98 -91 41 C-91 53.87 -91 66.74 -91 80 C-63.28 80 -35.56 80 -7 80 C-7.495 85.94 -7.495 85.94 -8 92 C-8 100.25 -8 108.5 -8 117 C-35.06 117.33 -62.12 117.66 -90 118 C-94.21768762 130.65306287 -91 144.66250065 -91 158 C-46.45 158.495 -46.45 158.495 -1 159 C-1 170.88 -1 182.76 -1 195 C-44.56 195 -88.12 195 -133 195 C-133 130.98 -133 66.96 -133 1 C-111.240625 0.835 -89.48125 0.67 -67.0625 0.5 C-60.18027588 0.44779297 -53.29805176 0.39558594 -46.20727539 0.34179688 C-37.83288574 0.27832031 -37.83288574 0.27832031 -33.91819763 0.24865723 C-31.1715748 0.22783781 -28.42495207 0.20700614 -25.67832947 0.18615723 C-21.52912425 0.15466248 -17.37991859 0.12322736 -13.23071289 0.09179688 C-11.99768716 0.08242851 -10.76466143 0.07306015 -9.49427128 0.0634079 C-8.3845518 0.05501137 -7.27483232 0.04661484 -6.13148499 0.03796387 C-5.15899339 0.03058952 -4.18650179 0.02321518 -3.18454075 0.01561737 C-1 0 -1 0 0 0 Z " fill="#0C3B64" transform="translate(797,414)"/>
<path d="M0 0 C47.52 0 95.04 0 144 0 C144 3 144 3 143.46484375 5.5 C143.05765779 8.56587076 143.05589946 11.06278914 143.25390625 14.125 C143.93957307 25.73193636 143.87874841 33.59507972 136.09375 42.51171875 C135.59230469 43.06520996 135.09085938 43.61870117 134.57421875 44.18896484 C131.59135882 47.62054905 129.02897063 51.37509497 126.375 55.0625 C120.58048844 62.94978506 114.64530393 70.72686151 108.69433594 78.49633789 C104.49935124 83.98803805 100.41585528 89.53941432 96.43554688 95.18798828 C93.41104052 99.46677521 90.24695461 103.62078603 87.02978516 107.75585938 C83.26813337 112.60866624 79.63061316 117.54867634 76 122.5 C71.26976895 128.94771378 66.48624101 135.34207486 61.57421875 141.65234375 C57.66831103 146.7318019 53.84454467 151.87394045 50 157 C96.53 157.495 96.53 157.495 144 158 C144 169.88 144 181.76 144 194 C124.72050254 194.15296509 105.44098787 194.30178925 86.16140079 194.4429636 C77.21019767 194.50864284 68.2590162 194.57621463 59.30786133 194.64819336 C51.50892148 194.71090206 43.7099644 194.77010922 35.91096586 194.82505554 C31.77886053 194.85429126 27.64678569 194.88531834 23.51472664 194.92053413 C19.63001389 194.95358669 15.7452957 194.98197752 11.86052132 195.00670624 C10.43058964 195.0166462 9.00066892 195.02832731 7.57076645 195.04183006 C5.62685076 195.05993301 3.68287585 195.07131376 1.73890686 195.08229065 C0.10318521 195.09473485 0.10318521 195.09473485 -1.56558132 195.10743046 C-4 195 -4 195 -5 194 C-8.18298536 165.67015201 -8.18298536 165.67015201 -1.31542969 155.91259766 C0.79460335 153.41886241 2.99179353 151.05415381 5.31103516 148.75390625 C8.18154408 145.77302505 10.51701694 142.41010584 12.9375 139.0625 C13.91734223 137.74628669 14.90045109 136.43249925 15.88671875 135.12109375 C16.63574463 134.12505127 16.63574463 134.12505127 17.39990234 133.10888672 C19.13410856 130.82324843 20.88706787 128.55295551 22.64453125 126.28515625 C23.24595947 125.50712646 23.8473877 124.72909668 24.46704102 123.92749023 C25.63651985 122.41724035 26.81005528 120.91012118 27.98803711 119.40649414 C28.51276611 118.7283667 29.03749512 118.05023926 29.578125 117.3515625 C30.04637695 116.75166504 30.51462891 116.15176758 30.99707031 115.53369141 C32.18243321 114.02643871 32.18243321 114.02643871 32 112 C33.65071879 110.31753662 35.32033618 108.65356735 37 107 C38.4525022 105.17377005 39.86843326 103.31796585 41.25 101.4375 C42.04550412 100.36192828 42.84107884 99.28640877 43.63671875 98.2109375 C44.41660156 97.15132812 45.19648437 96.09171875 46 95 C47.35163897 93.18561423 48.70582793 91.37312544 50.0625 89.5625 C50.79726563 88.58152344 51.53203125 87.60054688 52.2890625 86.58984375 C54.43601247 83.73751495 56.60297081 80.90087497 58.7734375 78.06640625 C65.89111703 68.76855182 72.93288787 59.44907344 79.66833496 49.87020874 C81.47751637 47.32936943 83.31453509 44.80922114 85.15039062 42.28759766 C85.87117798 41.29732574 86.59196533 40.30705383 87.33459473 39.28677368 C87.88417847 38.53213837 88.43376221 37.77750305 89 37 C87.39387093 37.00666183 87.39387093 37.00666183 85.7552948 37.01345825 C75.67568322 37.05396157 65.59608811 37.08396382 55.51641369 37.10362434 C50.33406883 37.11407171 45.15178954 37.1282483 39.96948242 37.15087891 C34.97040981 37.1725733 29.97140036 37.18456145 24.97228432 37.18975449 C23.06285927 37.19345637 21.15343777 37.200685 19.24403954 37.21146011 C16.57431886 37.22592979 13.90486085 37.22797984 11.23510742 37.22705078 C10.44172974 37.23424133 9.64835205 37.24143188 8.83093262 37.24884033 C5.01307433 37.23441687 3.2555949 37.1703966 0 35 C0.66 35 1.32 35 2 35 C2 23.78 2 12.56 2 1 C1.34 0.67 0.68 0.34 0 0 Z " fill="#0C3A62" transform="translate(496,415)"/>
<path d="M0 0 C26.95622489 -0.71171551 51.41433312 10.7374446 70.8046875 28.9375 C76.12810391 34.4765772 82.1132915 41.80081201 84.5546875 49.125 C79.99612201 53.14223583 74.87453279 55.83097438 69.5546875 58.6875 C67.78340367 59.64630364 66.01255672 60.60591489 64.2421875 61.56640625 C63.42105469 62.01000488 62.59992188 62.45360352 61.75390625 62.91064453 C59.99435296 63.88222735 58.26810636 64.91403609 56.5546875 65.96484375 C54.5546875 67.125 54.5546875 67.125 52.5546875 67.125 C52.2246875 67.785 51.8946875 68.445 51.5546875 69.125 C51.0803125 68.320625 50.6059375 67.51625 50.1171875 66.6875 C44.03516863 57.60730282 33.83784134 48.09803671 23.5546875 44.125 C20.80322476 43.87215633 20.80322476 43.87215633 18.5546875 44.125 C18.2246875 43.465 17.8946875 42.805 17.5546875 42.125 C2.10100053 38.62605201 -12.8734374 40.26379972 -26.65234375 48.43359375 C-39.23844784 57.19669976 -47.15256546 70.27210509 -50.4453125 85.125 C-54.11653706 106.38216042 -51.11935682 127.82631504 -38.66015625 145.68359375 C-36.99037486 147.80400454 -36.99037486 147.80400454 -34.4453125 150.125 C-33.7853125 150.125 -33.1253125 150.125 -32.4453125 150.125 C-31.9296875 150.66125 -31.4140625 151.1975 -30.8828125 151.75 C-21.59509871 160.79956728 -10.50095596 163.9090345 2.2421875 164.375 C15.22861956 164.15953883 29.47685802 158.69553014 39.03515625 149.7421875 C41.45299823 147.16895721 43.74571261 144.49815846 45.9765625 141.76171875 C47.5546875 140.125 47.5546875 140.125 50.5546875 139.125 C52.68017578 140.03369141 52.68017578 140.03369141 55.125 141.4765625 C56.47078125 142.25966797 56.47078125 142.25966797 57.84375 143.05859375 C58.77960938 143.61675781 59.71546875 144.17492187 60.6796875 144.75 C62.51535066 145.825989 64.35128585 146.90151405 66.1875 147.9765625 C67.07985352 148.50282227 67.97220703 149.02908203 68.89160156 149.57128906 C72.74450931 151.8191718 76.64329306 153.98089612 80.5546875 156.125 C80.5546875 157.445 80.5546875 158.765 80.5546875 160.125 C79.8946875 160.125 79.2346875 160.125 78.5546875 160.125 C78.3484375 160.79917969 78.1421875 161.47335937 77.9296875 162.16796875 C76.07270845 166.16152881 73.43659132 169.13758419 70.5546875 172.4375 C70.008125 173.08267578 69.4615625 173.72785156 68.8984375 174.39257812 C67.4990178 176.01322962 66.03161073 177.57465019 64.5546875 179.125 C63.8946875 179.125 63.2346875 179.125 62.5546875 179.125 C62.2246875 180.115 61.8946875 181.105 61.5546875 182.125 C43.74734983 198.28417362 18.90789055 205.00805672 -4.6796875 203.97265625 C-27.66756019 202.39137524 -47.66766855 193.86270734 -64.4453125 178.125 C-65.21617187 177.42246094 -65.98703125 176.71992187 -66.78125 175.99609375 C-76.74128311 166.55123476 -84.97057855 153.14034292 -89.4453125 140.125 C-89.4453125 139.135 -89.4453125 138.145 -89.4453125 137.125 C-90.1053125 136.795 -90.7653125 136.465 -91.4453125 136.125 C-97.58194789 116.91839013 -97.71484374 93.49911894 -92.4453125 74.125 C-92.25195312 73.41037598 -92.05859375 72.69575195 -91.859375 71.95947266 C-85.2858758 48.56167033 -72.52884195 29.88782475 -52.4453125 16.125 C-51.20007813 15.26648438 -51.20007813 15.26648438 -49.9296875 14.390625 C-34.79188881 4.66634373 -17.74832425 0.90726258 0 0 Z " fill="#0C3B63" transform="translate(403.4453125,410.875)"/>
<path d="M0 0 C0.16813487 4.56244714 0.33425255 9.12496556 0.5 13.6875 C0.57154297 15.62786133 0.57154297 15.62786133 0.64453125 17.60742188 C0.68964844 18.85458984 0.73476563 20.10175781 0.78125 21.38671875 C0.8440918 23.10701294 0.8440918 23.10701294 0.90820312 24.86206055 C0.98763749 27.57740611 1.01779658 30.28379708 1 33 C1.66 33.33 2.32 33.66 3 34 C2.67 34.99 2.34 35.98 2 37 C-2.57509649 38.16757837 -7.05342786 38.09620379 -11.73754883 38.02172852 C-12.60634674 38.01212097 -13.47514465 38.00251343 -14.37026978 37.99261475 C-17.23260852 37.95971975 -20.09479007 37.91935137 -22.95703125 37.87890625 C-24.94528149 37.85459585 -26.93353749 37.83075275 -28.92179871 37.80735779 C-34.14804667 37.74460845 -39.37419223 37.67551593 -44.6003418 37.60510254 C-50.87454012 37.52188846 -57.14883738 37.44655233 -63.42311859 37.36989594 C-72.94883517 37.2526327 -82.47437105 37.1253626 -92 37 C-92 50.86 -92 64.72 -92 79 C-92.33 79 -92.66 79 -93 79 C-93 64.48 -93 49.96 -93 35 C-62.97 35 -32.94 35 -2 35 C-2 24.44 -2 13.88 -2 3 C-44.24 3 -86.48 3 -130 3 C-130 65.7 -130 128.4 -130 193 C-88.09 193 -46.18 193 -3 193 C-3.33 182.77 -3.66 172.54 -4 162 C-33.37 161.67 -62.74 161.34 -93 161 C-94.13717088 158.72565824 -94.12666384 157.47417045 -94.12939453 154.94921875 C-94.13254669 154.11495361 -94.13569885 153.28068848 -94.13894653 152.42114258 C-94.1369223 151.51904053 -94.13489807 150.61693848 -94.1328125 149.6875 C-94.13376923 148.76283936 -94.13472595 147.83817871 -94.13571167 146.88549805 C-94.13639283 144.92854749 -94.134543 142.97159467 -94.13037109 141.01464844 C-94.12502195 138.01231836 -94.13031825 135.0101379 -94.13671875 132.0078125 C-94.13605796 130.10937467 -94.13477677 128.21093693 -94.1328125 126.3125 C-94.13483673 125.41039795 -94.13686096 124.5082959 -94.13894653 123.57885742 C-94.13421829 122.32745972 -94.13421829 122.32745972 -94.12939453 121.05078125 C-94.12859894 120.31512939 -94.12780334 119.57947754 -94.12698364 118.8215332 C-94 117 -94 117 -93 115 C-65.94 115 -38.88 115 -11 115 C-11 104.11 -11 93.22 -11 82 C-38.06 82 -65.12 82 -93 82 C-93 81.34 -93 80.68 -93 80 C-64.62 80 -36.24 80 -7 80 C-7.495 85.94 -7.495 85.94 -8 92 C-8 100.25 -8 108.5 -8 117 C-35.06 117.33 -62.12 117.66 -90 118 C-94.21768762 130.65306287 -91 144.66250065 -91 158 C-46.45 158.495 -46.45 158.495 -1 159 C-1 170.88 -1 182.76 -1 195 C-44.56 195 -88.12 195 -133 195 C-133 130.98 -133 66.96 -133 1 C-111.240625 0.835 -89.48125 0.67 -67.0625 0.5 C-60.18027588 0.44779297 -53.29805176 0.39558594 -46.20727539 0.34179688 C-37.83288574 0.27832031 -37.83288574 0.27832031 -33.91819763 0.24865723 C-31.1715748 0.22783781 -28.42495207 0.20700614 -25.67832947 0.18615723 C-21.52912425 0.15466248 -17.37991859 0.12322736 -13.23071289 0.09179688 C-11.99768716 0.08242851 -10.76466143 0.07306015 -9.49427128 0.0634079 C-8.3845518 0.05501137 -7.27483232 0.04661484 -6.13148499 0.03796387 C-5.15899339 0.03058952 -4.18650179 0.02321518 -3.18454075 0.01561737 C-1 0 -1 0 0 0 Z " fill="#011025" transform="translate(797,414)"/>
<path d="M0 0 C0.99 0.495 0.99 0.495 2 1 C0.66704985 2.18793011 -0.66638699 3.3753141 -2 4.5625 C-3.24136719 5.66851562 -3.24136719 5.66851562 -4.5078125 6.796875 C-6.61272779 8.65764651 -8.73952501 10.48715624 -10.875 12.3125 C-18.81432888 19.25347016 -26.30013712 26.85644281 -33 35 C-33.60279785 35.73210693 -33.60279785 35.73210693 -34.21777344 36.47900391 C-41.14240626 44.94384907 -47.26190889 53.6968227 -53 63 C-53.51949219 63.79148437 -54.03898437 64.58296875 -54.57421875 65.3984375 C-68.48859273 87.12773386 -75.5612469 112.85776525 -80 138 C-80.19916016 139.07967041 -80.19916016 139.07967041 -80.40234375 140.18115234 C-89.69414886 192.44755611 -74.74278754 249.08028198 -44.91210938 292.26416016 C-41.02784203 297.75074538 -36.89809802 302.97428433 -32.42602539 307.99365234 C-30.62110225 310.02174088 -29.08108743 311.83355739 -27.88671875 314.28515625 C-27.06316502 316.36641377 -27.06316502 316.36641377 -24 317 C-22.52734375 318.53125 -22.52734375 318.53125 -20.9375 320.5 C-8.34643177 335.22426574 8.83420434 348.08699071 26 357 C26.66 357 27.32 357 28 357 C29.0077499 357.99218957 30.00679755 358.99324835 31 360 C33.56847791 361.35046652 36.11515069 362.60718108 38.75 363.8125 C39.51223877 364.1636084 40.27447754 364.5147168 41.05981445 364.87646484 C43.36790173 365.92993275 45.68223336 366.9680239 48 368 C48.63019043 368.28311035 49.26038086 368.5662207 49.90966797 368.85791016 C67.08904361 376.47584964 85.63470097 380.39480273 104 384 C104 384.33 104 384.66 104 385 C82.29602614 384.23307513 61.22216596 377.55784391 41.87841797 367.9296875 C39.92911622 366.96491741 37.96796718 366.0280676 36.00390625 365.09375 C5.21501144 350.29125443 -23.08697109 326.76703334 -43 299 C-44.15435547 297.53240234 -44.15435547 297.53240234 -45.33203125 296.03515625 C-57.97766051 279.50799297 -67.26752754 259.61895947 -74 240 C-74.44472656 238.77796875 -74.88945312 237.5559375 -75.34765625 236.296875 C-85.68251649 206.08242121 -88.65577716 170.49886201 -83 139 C-82.84934082 138.12811035 -82.69868164 137.2562207 -82.54345703 136.35791016 C-76.27647019 100.97742825 -62.5278268 68.12273115 -40 40 C-39.37931641 39.22487061 -39.37931641 39.22487061 -38.74609375 38.43408203 C-32.37163524 30.55401448 -25.4508913 23.25302171 -18.3125 16.0625 C-17.52891113 15.269646 -16.74532227 14.47679199 -15.93798828 13.65991211 C-10.9205354 8.6693328 -5.69167976 4.2050533 0 0 Z " fill="#20764E" transform="translate(340,339)"/>
<path d="M0 0 C47.52 0 95.04 0 144 0 C144 3 144 3 143.46484375 5.5 C143.05765779 8.56587076 143.05589946 11.06278914 143.25390625 14.125 C143.93957307 25.73193636 143.87874841 33.59507972 136.09375 42.51171875 C135.59230469 43.06520996 135.09085938 43.61870117 134.57421875 44.18896484 C131.59135882 47.62054905 129.02897063 51.37509497 126.375 55.0625 C120.58048844 62.94978506 114.64530393 70.72686151 108.69433594 78.49633789 C104.49935124 83.98803805 100.41585528 89.53941432 96.43554688 95.18798828 C93.4141057 99.46243889 90.25494395 103.61364007 87.03857422 107.74267578 C82.57022357 113.50207609 78.27906356 119.39102121 73.99707031 125.28979492 C70.51955799 130.05015176 66.89503919 134.5738191 63 139 C62.34 138.67 61.68 138.34 61 138 C61.54785156 137.29359375 62.09570312 136.5871875 62.66015625 135.859375 C73.6166005 121.67835123 84.32224619 107.31006253 94.93603516 92.87133789 C101.05156933 84.55708647 107.25240187 76.3078864 113.45898438 68.06152344 C114.93173885 66.1040774 116.40367789 64.1460229 117.875 62.1875 C118.59804321 61.22505371 118.59804321 61.22505371 119.33569336 60.24316406 C124.11409703 53.86986922 128.83419506 47.45381372 133.54443359 41.0300293 C134.1111377 40.25828369 134.6778418 39.48653809 135.26171875 38.69140625 C136.01908325 37.65802124 136.01908325 37.65802124 136.79174805 36.60375977 C138 35 138 35 139 34 C139.33 23.44 139.66 12.88 140 2 C95.12 2 50.24 2 4 2 C4 12.56 4 23.12 4 34 C32.71 34 61.42 34 91 34 C91 34.66 91 35.32 91 36 C79.57819079 36.176874 68.15628056 36.342836 56.73411083 36.49477577 C51.43063601 36.56566847 46.12727053 36.64035312 40.82397461 36.72363281 C35.70829347 36.80382798 30.59256402 36.87415514 25.47664833 36.93757248 C23.52252496 36.96354372 21.56844594 36.99310162 19.61443138 37.02626419 C16.88255098 37.07202228 14.15079258 37.10515241 11.41870117 37.13525391 C10.60662201 37.1517952 9.79454285 37.16833649 8.95785522 37.18537903 C5.08915782 37.21481281 3.29901624 37.19934416 0 35 C0.66 35 1.32 35 2 35 C2 23.78 2 12.56 2 1 C1.34 0.67 0.68 0.34 0 0 Z " fill="#072239" transform="translate(496,415)"/>
<path d="M0 0 C9.09148416 -0.16234793 17.03830365 0.85544592 25.56835938 4.11230469 C28.35300977 5.12886983 31.16127963 6.04097097 33.984375 6.9453125 C48.09778061 11.47699646 61.70824222 16.42024926 75 23 C75.66354492 23.32822754 76.32708984 23.65645508 77.01074219 23.99462891 C91.64377852 31.33348759 105.7938075 39.72793052 118.3984375 50.19921875 C121.02082325 52.37943052 121.02082325 52.37943052 125 52 C126.886777 50.63174429 126.886777 50.63174429 128.6015625 48.71875 C129.25640625 48.04199219 129.91125 47.36523438 130.5859375 46.66796875 C131.25882813 45.95253906 131.93171875 45.23710937 132.625 44.5 C133.96689056 43.08949004 135.3130335 41.68300934 136.6640625 40.28125 C137.25654785 39.65283203 137.8490332 39.02441406 138.45947266 38.37695312 C140 37 140 37 142 37 C147.01736375 49.62313343 151.64025031 62.34504311 156.0625 75.1875 C157.36309264 78.95279393 158.66673028 82.71702135 159.97265625 86.48046875 C160.46640244 87.90345779 160.46640244 87.90345779 160.97012329 89.35519409 C163.29938923 96.0447733 165.69237274 102.70922172 168.12109375 109.36328125 C168.61428856 110.71826973 168.61428856 110.71826973 169.1174469 112.10063171 C170.69099286 116.4217885 172.27376526 120.73918291 173.87133789 125.05151367 C174.43544994 126.59669963 174.99919194 128.14202076 175.5625 129.6875 C175.82626938 130.38857376 176.09003876 131.08964752 176.36180115 131.81196594 C178.11355352 136.65933944 178.11355352 136.65933944 177 140 C175.60152832 139.5035498 175.60152832 139.5035498 174.17480469 138.99707031 C156.56012207 132.75000841 138.92498235 126.57808241 121.1875 120.6875 C120.44133423 120.43940582 119.69516846 120.19131165 118.9263916 119.93569946 C111.4754639 117.45952879 104.01870737 115.00255368 96.55078125 112.578125 C95.43227783 112.21243408 94.31377441 111.84674316 93.16137695 111.4699707 C91.12693543 110.80554463 89.0904522 110.14732134 87.05151367 109.49682617 C86.16826416 109.20783447 85.28501465 108.91884277 84.375 108.62109375 C83.61960937 108.3780249 82.86421875 108.13495605 82.0859375 107.88452148 C79.74664796 106.89256853 77.96829383 105.59450726 76 104 C76.60473145 103.26680542 76.60473145 103.26680542 77.22167969 102.51879883 C79.06482919 100.28367569 80.90741901 98.04809182 82.75 95.8125 C83.38421875 95.04357422 84.0184375 94.27464844 84.671875 93.48242188 C85.90235822 91.98917921 87.1296833 90.49332736 88.35351562 88.99462891 C89.71095915 87.35015773 91.10821308 85.73863325 92.515625 84.13671875 C93.00546875 83.43160156 93.4953125 82.72648437 94 82 C92.87141847 78.61425542 92.37018238 78.30015498 89.484375 76.46875 C88.73897461 75.99348877 87.99357422 75.51822754 87.22558594 75.02856445 C86.40864258 74.52413818 85.59169922 74.01971191 84.75 73.5 C83.89954102 72.97172607 83.04908203 72.44345215 82.17285156 71.89916992 C60.65429499 58.71640057 38.1637882 49.17137457 14 42 C11.99728273 41.34154119 9.99632383 40.67759546 8 40 C11.1629695 38.97929854 13.12944743 39.04525377 16.31640625 39.93359375 C17.15341064 40.1661084 17.99041504 40.39862305 18.8527832 40.63818359 C19.74698975 40.90195801 20.64119629 41.16573242 21.5625 41.4375 C22.49344482 41.70900879 23.42438965 41.98051758 24.38354492 42.26025391 C50.193578 50.03933884 75.20782516 63.21559939 97 79 C96.11891607 83.45064984 93.62499188 86.30908261 90.8125 89.75 C89.81185097 90.99687524 88.81184709 92.24426853 87.8125 93.4921875 C87.32910156 94.09256836 86.84570312 94.69294922 86.34765625 95.31152344 C83.81768718 98.48131802 81.41217 101.7403108 79 105 C80.16273438 105.22429687 81.32546875 105.44859375 82.5234375 105.6796875 C89.71873115 107.28640356 96.6504503 109.76574328 103.625 112.125 C105.17242232 112.6445961 106.71995123 113.16387487 108.26757812 113.68286133 C117.74735819 116.86726834 127.21376388 120.09109112 136.6796875 123.31640625 C137.74530914 123.67945862 138.81093079 124.04251099 139.90884399 124.41656494 C145.19383534 126.21777781 150.4778442 128.02179585 155.76025391 129.83056641 C156.7444632 130.16692612 157.72867249 130.50328583 158.7427063 130.84983826 C160.59576715 131.4831454 162.44839262 132.11772844 164.30050659 132.75379944 C165.12624176 133.03573654 165.95197693 133.31767365 166.80273438 133.6081543 C167.87896057 133.97688911 167.87896057 133.97688911 168.97692871 134.35307312 C170.96950653 134.99024896 172.96522998 135.51637583 175 136 C173.64713505 132.22869841 172.2926671 128.45797494 170.9375 124.6875 C170.52556396 123.54120117 170.11362793 122.39490234 169.68920898 121.21386719 C167.61040606 115.43883258 165.5161083 109.67086251 163.37158203 103.91992188 C160.12865167 95.22252746 157.0736215 86.4678052 154.0625 77.6875 C150.91545433 68.52723157 147.76084371 59.37049254 144.5 50.25 C144.17394775 49.32147217 143.84789551 48.39294434 143.51196289 47.4362793 C143.20895264 46.59621338 142.90594238 45.75614746 142.59375 44.890625 C142.33271484 44.15875977 142.07167969 43.42689453 141.80273438 42.67285156 C141.11536789 40.80230332 141.11536789 40.80230332 139 40 C138.67 40.99 138.34 41.98 138 43 C136.546875 44.4296875 136.546875 44.4296875 134.75 45.875 C131.65403287 48.43171056 128.80273465 51.11941161 126 54 C125.00118977 55.00118835 124.00143781 56.00143988 123 57 C122.40316406 56.47792969 121.80632812 55.95585937 121.19140625 55.41796875 C86.92566476 26.34554915 43.47494178 10.02410269 0 1 C0 0.67 0 0.34 0 0 Z " fill="#237A52" transform="translate(516,263)"/>
<path d="M0 0 C0.33 0.66 0.66 1.32 1 2 C-0.02129959 4.31555913 -1.09825099 6.4744602 -2.3125 8.6875 C-2.67424316 9.35378418 -3.03598633 10.02006836 -3.40869141 10.70654297 C-10.14786272 22.88856092 -18.24795613 34.19247797 -27 45 C-27.44005371 45.54446777 -27.88010742 46.08893555 -28.33349609 46.64990234 C-39.81090951 60.72071057 -52.57554199 73.94053442 -67 85 C-67.91910156 85.74765625 -68.83820313 86.4953125 -69.78515625 87.265625 C-98.54966108 110.27722887 -132.18232151 126.59138387 -168 135 C-168.74556152 135.17644043 -169.49112305 135.35288086 -170.25927734 135.53466797 C-177.54944016 137.22293381 -184.49085056 138.39521839 -192 138 C-188.35591643 135.80982189 -184.56738429 135.31730617 -180.4375 134.6875 C-146.52262718 129.02466309 -114.3529591 115.32821557 -86 96 C-85.35498535 95.56445801 -84.7099707 95.12891602 -84.04541016 94.68017578 C-74.66423245 88.30763903 -65.12425101 81.39949825 -57.26171875 73.18359375 C-56 72 -56 72 -54 72 C-54 71.34 -54 70.68 -54 70 C-52.49609375 68.51953125 -52.49609375 68.51953125 -50.4375 66.8125 C-42.70321408 60.20443466 -36.3583887 52.936947 -30 45 C-29.34 44.20722656 -28.68 43.41445313 -28 42.59765625 C-22.09305636 35.44025076 -17.0112588 27.79706403 -12 20 C-11.60151855 19.3802832 -11.20303711 18.76056641 -10.79248047 18.12207031 C-5.97610326 10.97922055 -5.97610326 10.97922055 -3 3 C-8.23040891 2.79520176 -13.45168122 2.68504105 -18.68603516 2.65820312 C-20.46126696 2.6362827 -22.23638683 2.58956775 -24.01025391 2.51660156 C-33.88954255 1.83880857 -33.88954255 1.83880857 -42.76171875 5.35317993 C-45.80989568 8.63534629 -47.97118115 12.31885205 -50.03665161 16.27130127 C-71.16267899 54.18130053 -119.0867408 80.88712804 -158.5625 94.1875 C-159.71049072 94.57446045 -160.85848145 94.9614209 -162.04125977 95.36010742 C-167.24521613 97.04096787 -171.48663235 98.20612147 -177 98 C-176 96 -176 96 -174.25 95.34570312 C-173.5075 95.15943359 -172.765 94.97316406 -172 94.78125 C-171.195625 94.57113281 -170.39125 94.36101562 -169.5625 94.14453125 C-167.85416667 93.71484375 -166.14583333 93.28515625 -164.4375 92.85546875 C-163.633125 92.64535156 -162.82875 92.43523437 -162 92.21875 C-161.2575 92.03248047 -160.515 91.84621094 -159.75 91.65429688 C-157.79017885 91.14799774 -157.79017885 91.14799774 -157 89 C-155.07668664 88.76063567 -153.15245116 88.52678716 -151.22460938 88.32714844 C-147.69618637 87.8082627 -144.50968561 86.51097704 -141.25 85.125 C-140.52538574 84.81965332 -139.80077148 84.51430664 -139.05419922 84.19970703 C-113.52359835 73.11997997 -87.13420226 56.47600647 -69 35 C-69 34.34 -69 33.68 -69 33 C-68.27941406 32.57976563 -67.55882812 32.15953125 -66.81640625 31.7265625 C-63.54596653 29.72166048 -61.35673183 27.28687379 -58.9375 24.375 C-58.44459473 23.82175049 -57.95168945 23.26850098 -57.44384766 22.69848633 C-54.60516324 19.40295537 -52.64669182 16.42361641 -51.05859375 12.36328125 C-42.44864596 -7.24950891 -17.98628094 -1.35794209 0 0 Z " fill="#20724C" transform="translate(701,623)"/>
<path d="M0 0 C28.38 0 56.76 0 86 0 C85.67 3.96 85.34 7.92 85 12 C85 20.25 85 28.5 85 37 C57.94 37.33 30.88 37.66 3 38 C-1.21768762 50.65306287 2 64.66250065 2 78 C46.55 78.495 46.55 78.495 92 79 C92 90.88 92 102.76 92 115 C91.67 115 91.34 115 91 115 C91 103.45 91 91.9 91 80 C60.97 80.33 30.94 80.66 0 81 C-1.13717088 78.72565824 -1.12666384 77.47417045 -1.12939453 74.94921875 C-1.13254669 74.11495361 -1.13569885 73.28068848 -1.13894653 72.42114258 C-1.13591019 71.0679895 -1.13591019 71.0679895 -1.1328125 69.6875 C-1.13424759 68.30050903 -1.13424759 68.30050903 -1.13571167 66.88549805 C-1.13639283 64.92854749 -1.134543 62.97159467 -1.13037109 61.01464844 C-1.12502195 58.01231836 -1.13031825 55.0101379 -1.13671875 52.0078125 C-1.13605796 50.10937467 -1.13477677 48.21093693 -1.1328125 46.3125 C-1.13483673 45.41039795 -1.13686096 44.5082959 -1.13894653 43.57885742 C-1.13579437 42.74459229 -1.13264221 41.91032715 -1.12939453 41.05078125 C-1.12859894 40.31512939 -1.12780334 39.57947754 -1.12698364 38.8215332 C-1 37 -1 37 0 35 C27.06 35 54.12 35 82 35 C82 24.11 82 13.22 82 2 C54.94 2 27.88 2 0 2 C0 1.34 0 0.68 0 0 Z " fill="#0E2F4C" transform="translate(704,494)"/>
<path d="M0 0 C1.20591797 0.07863281 2.41183594 0.15726562 3.65429688 0.23828125 C10.232405 0.70532333 16.42107939 1.491103 22.8125 3.125 C22.8125 3.455 22.8125 3.785 22.8125 4.125 C17.01470216 4.21567915 11.49610692 3.91553354 5.75 3.125 C-50.08973127 -3.6477429 -110.48155754 10.93363381 -157.1875 42.125 C-157.79706543 42.53041016 -158.40663086 42.93582031 -159.03466797 43.35351562 C-166.37015703 48.28826246 -173.28305344 53.71845098 -180.125 59.3125 C-181.17216187 60.16775269 -181.17216187 60.16775269 -182.24047852 61.0402832 C-186.81466588 64.83593214 -191.04655857 68.8640506 -195.1875 73.125 C-196.85416667 74.79166667 -198.52083333 76.45833333 -200.1875 78.125 C-200.744375 78.723125 -201.30125 79.32125 -201.875 79.9375 C-203.1875 81.125 -203.1875 81.125 -205.1875 81.125 C-205.41824219 81.66898437 -205.64898437 82.21296875 -205.88671875 82.7734375 C-207.54943744 85.77931333 -209.73750945 88.19195171 -212 90.75 C-223.77149716 104.42177561 -233.71858788 119.20626921 -242.1875 135.125 C-242.64366699 135.98125977 -243.09983398 136.83751953 -243.56982422 137.71972656 C-252.05014922 153.9086284 -257.77411949 170.72929284 -263.1875 188.125 C-263.5175 188.125 -263.8475 188.125 -264.1875 188.125 C-263.65867603 181.18682957 -262.1916632 175.174325 -259.875 168.625 C-259.35256714 167.14253784 -259.35256714 167.14253784 -258.81958008 165.63012695 C-247.49719196 134.51980842 -230.03852181 106.05706525 -207.1875 82.125 C-205.9285227 80.69535584 -204.67746369 79.25866607 -203.4375 77.8125 C-196.7729847 70.15232218 -196.7729847 70.15232218 -193.1875 67.125 C-192.5275 67.125 -191.8675 67.125 -191.1875 67.125 C-191.1875 66.465 -191.1875 65.805 -191.1875 65.125 C-189.2734375 63.34765625 -189.2734375 63.34765625 -186.5625 61.1875 C-185.551875 60.38183594 -184.54125 59.57617188 -183.5 58.74609375 C-182.68595703 58.10389893 -182.68595703 58.10389893 -181.85546875 57.44873047 C-180.20378054 56.13792053 -178.56957737 54.8077699 -176.9375 53.47265625 C-168.12321492 46.32475342 -158.83989581 40.08301263 -149.1875 34.125 C-148.3941626 33.63233643 -147.6008252 33.13967285 -146.78344727 32.63208008 C-115.92021961 13.74607469 -78.09389322 2.93360312 -42.1875 0.125 C-41.48657227 0.06860352 -40.78564453 0.01220703 -40.06347656 -0.04589844 C-26.63110479 -1.09249633 -13.44154813 -0.97202777 0 0 Z " fill="#237B51" transform="translate(492.1875,258.875)"/>
<path d="M0 0 C0.16813487 4.56244714 0.33425255 9.12496556 0.5 13.6875 C0.57154297 15.62786133 0.57154297 15.62786133 0.64453125 17.60742188 C0.68964844 18.85458984 0.73476563 20.10175781 0.78125 21.38671875 C0.8440918 23.10701294 0.8440918 23.10701294 0.90820312 24.86206055 C0.98763749 27.57740611 1.01779658 30.28379708 1 33 C1.66 33.33 2.32 33.66 3 34 C2.67 34.99 2.34 35.98 2 37 C-2.57509649 38.16757837 -7.05342786 38.09620379 -11.73754883 38.02172852 C-12.60634674 38.01212097 -13.47514465 38.00251343 -14.37026978 37.99261475 C-17.23260852 37.95971975 -20.09479007 37.91935137 -22.95703125 37.87890625 C-24.94528149 37.85459585 -26.93353749 37.83075275 -28.92179871 37.80735779 C-34.14804667 37.74460845 -39.37419223 37.67551593 -44.6003418 37.60510254 C-50.87454012 37.52188846 -57.14883738 37.44655233 -63.42311859 37.36989594 C-72.94883517 37.2526327 -82.47437105 37.1253626 -92 37 C-92 50.86 -92 64.72 -92 79 C-92.33 79 -92.66 79 -93 79 C-93 64.48 -93 49.96 -93 35 C-62.97 35 -32.94 35 -2 35 C-2.33 24.44 -2.66 13.88 -3 3 C-45.24 2.67 -87.48 2.34 -131 2 C-131 65.69 -131 129.38 -131 195 C-131.66 194.67 -132.32 194.34 -133 194 C-133 130.31 -133 66.62 -133 1 C-111.240625 0.835 -89.48125 0.67 -67.0625 0.5 C-60.18027588 0.44779297 -53.29805176 0.39558594 -46.20727539 0.34179688 C-37.83288574 0.27832031 -37.83288574 0.27832031 -33.91819763 0.24865723 C-31.1715748 0.22783781 -28.42495207 0.20700614 -25.67832947 0.18615723 C-21.52912425 0.15466248 -17.37991859 0.12322736 -13.23071289 0.09179688 C-11.99768716 0.08242851 -10.76466143 0.07306015 -9.49427128 0.0634079 C-8.3845518 0.05501137 -7.27483232 0.04661484 -6.13148499 0.03796387 C-5.15899339 0.03058952 -4.18650179 0.02321518 -3.18454075 0.01561737 C-1 0 -1 0 0 0 Z " fill="#0F334F" transform="translate(797,414)"/>
<path d="M0 0 C0.33 0 0.66 0 1 0 C1.07779694 4.74561321 1.00869457 9.34987848 0.5078125 14.0703125 C-5.55963101 78.60781265 14.60417271 143.99232389 55.39306641 194.06591797 C58.79799908 198.16404569 62.33035852 202.1361976 66 206 C65.67 206.66 65.34 207.32 65 208 C58.33222369 201.76707867 52.6545574 195.0286999 47.25732422 187.70166016 C46.04049172 186.05480141 44.80477466 184.42366185 43.56640625 182.79296875 C36.0703853 172.77322228 29.93713611 161.99844243 24 151 C23.62633301 150.31695801 23.25266602 149.63391602 22.86767578 148.93017578 C8.65137086 122.51874477 0.56096313 90.71908371 -2 61 C-2.11085937 59.77539062 -2.22171875 58.55078125 -2.3359375 57.2890625 C-5.92127072 11.84254144 -5.92127072 11.84254144 0 0 Z " fill="#1F724A" transform="translate(222,474)"/>
<path d="M0 0 C2.765625 0.46484375 2.765625 0.46484375 4.75 1.0625 C4.75 1.3925 4.75 1.7225 4.75 2.0625 C18.61 2.5575 18.61 2.5575 32.75 3.0625 C32.42 3.7225 32.09 4.3825 31.75 5.0625 C30.65123535 4.98918457 29.5524707 4.91586914 28.42041016 4.84033203 C24.30325046 4.58495532 20.18676721 4.42557394 16.06396484 4.29345703 C14.28802495 4.2234772 12.51287972 4.12823622 10.73974609 4.00634766 C0.89196949 3.04565524 0.89196949 3.04565524 -8.01171875 6.39419556 C-11.07412016 9.67234498 -13.2269767 13.36372603 -15.28665161 17.32574463 C-36.31909428 55.24370682 -84.39509917 81.96929043 -123.8125 95.25 C-125.53448608 95.83044067 -125.53448608 95.83044067 -127.29125977 96.42260742 C-132.49521613 98.10346787 -136.73663235 99.26862147 -142.25 99.0625 C-141.25 97.0625 -141.25 97.0625 -139.5 96.40820312 C-138.7575 96.22193359 -138.015 96.03566406 -137.25 95.84375 C-136.445625 95.63363281 -135.64125 95.42351562 -134.8125 95.20703125 C-133.10416667 94.77734375 -131.39583333 94.34765625 -129.6875 93.91796875 C-128.883125 93.70785156 -128.07875 93.49773437 -127.25 93.28125 C-126.5075 93.09498047 -125.765 92.90871094 -125 92.71679688 C-123.04017885 92.21049774 -123.04017885 92.21049774 -122.25 90.0625 C-120.32668664 89.82313567 -118.40245116 89.58928716 -116.47460938 89.38964844 C-112.94618637 88.8707627 -109.75968561 87.57347704 -106.5 86.1875 C-105.77538574 85.88215332 -105.05077148 85.57680664 -104.30419922 85.26220703 C-78.77359835 74.18247997 -52.38420226 57.53850647 -34.25 36.0625 C-34.25 35.4025 -34.25 34.7425 -34.25 34.0625 C-33.52941406 33.64226563 -32.80882812 33.22203125 -32.06640625 32.7890625 C-28.79885431 30.78593079 -26.59793623 28.35485773 -24.1875 25.4375 C-23.71634766 24.88425049 -23.24519531 24.33100098 -22.75976562 23.76098633 C-20.00492012 20.45217733 -17.55612275 17.06501092 -15.25390625 13.42578125 C-6.66614896 -0.03418538 -6.66614896 -0.03418538 0 0 Z " fill="#257F57" transform="translate(666.25,621.9375)"/>
<path d="M0 0 C28.38 0 56.76 0 86 0 C85.67 3.96 85.34 7.92 85 12 C84.9600035 15.13472592 84.94477321 18.24364074 85 21.375 C85.02577327 22.88273615 85.04671075 24.39056374 85.0625 25.8984375 C85.07410156 26.54474121 85.08570313 27.19104492 85.09765625 27.85693359 C84.97297795 30.59299885 84.45027312 33.29836126 84 36 C57.27 36 30.54 36 3 36 C3 35.67 3 35.34 3 35 C29.07 35 55.14 35 82 35 C82 24.11 82 13.22 82 2 C54.94 2 27.88 2 0 2 C0 1.34 0 0.68 0 0 Z " fill="#031021" transform="translate(704,494)"/>
<path d="M0 0 C0.66 0 1.32 0 2 0 C2.16825135 4.22910518 2.33432435 8.45829319 2.5 12.6875 C2.57154297 14.48477539 2.57154297 14.48477539 2.64453125 16.31835938 C2.71220703 18.05375977 2.71220703 18.05375977 2.78125 19.82421875 C2.82314453 20.88729248 2.86503906 21.95036621 2.90820312 23.0456543 C2.99067115 25.69976479 3.01717131 28.34488603 3 31 C3.66 31.33 4.32 31.66 5 32 C4.67 32.99 4.34 33.98 4 35 C-0.57509649 36.16757837 -5.05342786 36.09620379 -9.73754883 36.02172852 C-10.60634674 36.01212097 -11.47514465 36.00251343 -12.37026978 35.99261475 C-15.23260852 35.95971975 -18.09479007 35.91935137 -20.95703125 35.87890625 C-22.94528149 35.85459585 -24.93353749 35.83075275 -26.92179871 35.80735779 C-32.14804667 35.74460845 -37.37419223 35.67551593 -42.6003418 35.60510254 C-48.87454012 35.52188846 -55.14883738 35.44655233 -61.42311859 35.36989594 C-70.94883517 35.2526327 -80.47437105 35.1253626 -90 35 C-90 48.86 -90 62.72 -90 77 C-90.33 77 -90.66 77 -91 77 C-91 62.48 -91 47.96 -91 33 C-60.97 33 -30.94 33 0 33 C0 22.11 0 11.22 0 0 Z " fill="#020F22" transform="translate(795,416)"/>
<path d="M0 0 C4.2565396 1.63081879 6.98244897 4.84565913 10.0625 8.0625 C15.72442679 13.83533623 21.5914853 19.05484692 28 24 C28.84739746 24.66999023 28.84739746 24.66999023 29.71191406 25.35351562 C39.86339209 33.37269495 50.48518167 40.2568576 61.70751953 46.68505859 C63.6891694 47.82171101 65.65577279 48.98004099 67.62109375 50.14453125 C83.52817941 59.1738712 101.65621125 66.33793161 119.5078125 70.31640625 C122 71 122 71 124 73 C117.44186663 72.46169476 111.65943472 71.23989223 105.4375 69.125 C104.5405542 68.82182861 103.6436084 68.51865723 102.71948242 68.20629883 C75.23635879 58.60056984 49.64771363 44.23918922 27 26 C26.26265625 25.43539062 25.5253125 24.87078125 24.765625 24.2890625 C19.26988193 20.03255561 14.10578467 15.46102004 9 10.75 C8.3404834 10.14728271 7.6809668 9.54456543 7.00146484 8.92358398 C6.38223145 8.34552002 5.76299805 7.76745605 5.125 7.171875 C4.57070313 6.6572168 4.01640625 6.14255859 3.4453125 5.61230469 C1.87387712 3.85930482 0.95648692 2.14164851 0 0 Z " fill="#20744B" transform="translate(288,682)"/>
<path d="M0 0 C3.55596783 2.79508388 6.79041815 5.81725412 10 9 C10.79148437 9.75410156 11.58296875 10.50820313 12.3984375 11.28515625 C16.48590226 15.23637218 16.48590226 15.23637218 18 17 C18 17.66 18 18.32 18 19 C19.91914553 18.06758496 21.83522386 17.12885525 23.75 16.1875 C24.81734375 15.66542969 25.8846875 15.14335937 26.984375 14.60546875 C29.96112457 13.11982421 29.96112457 13.11982421 32.265625 11.30078125 C34 10 34 10 36 10 C34.33877543 14.98367372 29.48979414 16.64658827 25 19 C23.01071657 19.69799419 21.01495907 20.38001259 19 21 C18.67 21.66 18.34 22.32 18 23 C17.525625 22.195625 17.05125 21.39125 16.5625 20.5625 C10.48048113 11.48230282 0.28315384 1.97303671 -10 -2 C-12.75146274 -2.25284367 -12.75146274 -2.25284367 -15 -2 C-15.495 -2.99 -15.495 -2.99 -16 -4 C-18.42645374 -4.54938575 -20.72699084 -4.94725089 -23.1875 -5.25 C-24.26257813 -5.38402222 -24.26257813 -5.38402222 -25.359375 -5.52075195 C-32.45892122 -6.2681138 -39.00689936 -5.31895189 -46 -4 C-47.62310201 -3.77736211 -49.24790162 -3.56625542 -50.875 -3.375 C-51.90625 -3.25125 -52.9375 -3.1275 -54 -3 C-53 -5 -53 -5 -50.0078125 -6.0703125 C-32.80620347 -10.93915873 -15.44116131 -9.99006217 0 0 Z " fill="#0A263E" transform="translate(437,457)"/>
<path d="M0 0 C0.66 0.33 1.32 0.66 2 1 C0.94425781 2.40185547 0.94425781 2.40185547 -0.1328125 3.83203125 C-5.77659494 11.33672083 -11.38207393 18.86714451 -16.9375 26.4375 C-21.95663036 33.2710902 -27.05173705 40.03968669 -32.21948242 46.76147461 C-36.6304788 52.50127261 -40.98041416 58.28507262 -45.30712891 64.08862305 C-48.89935546 68.89935546 -48.89935546 68.89935546 -50 70 C-50.15873955 72.21687994 -50.25133837 74.43855298 -50.31640625 76.66015625 C-50.3475779 77.65685585 -50.3475779 77.65685585 -50.37937927 78.6736908 C-50.44493658 80.80318543 -50.50378785 82.93280668 -50.5625 85.0625 C-50.60567939 86.50326847 -50.64929349 87.94402399 -50.69335938 89.38476562 C-50.80062393 92.9230404 -50.90187371 96.46145869 -51 100 C-51.33 100 -51.66 100 -52 100 C-54.18826596 68.9799273 -54.18826596 68.9799273 -48.11523438 60.94506836 C-45.99987033 58.64329904 -43.81765101 56.46816842 -41.48632812 54.38525391 C-39.39538172 52.43649735 -37.85672193 50.23080174 -36.25 47.875 C-33.55850894 44.09656063 -30.78314852 40.39898789 -27.953125 36.72265625 C-26.85822754 35.29880615 -26.85822754 35.29880615 -25.74121094 33.84619141 C-24.25879106 31.92227524 -22.77251892 30.00132059 -21.28222656 28.08349609 C-20.26080566 26.75632568 -20.26080566 26.75632568 -19.21875 25.40234375 C-18.59935547 24.60304443 -17.97996094 23.80374512 -17.34179688 22.98022461 C-15.81301677 21.12271825 -15.81301677 21.12271825 -16 19 C-14.34509069 17.32165834 -12.67601661 15.65726398 -11 14 C-9.40310006 11.96401791 -7.84042123 9.90074549 -6.3125 7.8125 C-2.18055556 2.18055556 -2.18055556 2.18055556 0 0 Z " fill="#092138" transform="translate(544,508)"/>
<path d="M0 0 C1.40474304 1.17694687 2.80425653 2.36035839 4.1875 3.5625 C3.8575 4.2225 3.5275 4.8825 3.1875 5.5625 C2.41148437 4.99402344 1.63546875 4.42554688 0.8359375 3.83984375 C-24.14465712 -14.16122444 -48.75347662 -17.74699943 -78.8125 -15.4375 C-78.8125 -16.0975 -78.8125 -16.7575 -78.8125 -17.4375 C-50.35388426 -21.13513917 -23.25881559 -18.44440341 0 0 Z " fill="#09233A" transform="translate(462.8125,430.4375)"/>
<path d="M0 0 C2.158583 3.2378745 3.17103623 6.39503178 4.3125 10.0625 C12.21080037 34.28915643 28.44359468 52.41889507 50.6640625 64.44140625 C52.42336477 65.33349062 54.20795589 66.17565971 56 67 C53.36376006 68.01727847 52.16906911 68.0547216 49.44140625 67.171875 C40.82274571 62.91516884 34.01590416 57.46277315 27 51 C25.83597656 49.94232422 25.83597656 49.94232422 24.6484375 48.86328125 C14.70431661 39.39908898 6.47607426 26.01924138 2 13 C2 12.01 2 11.02 2 10 C1.34 9.67 0.68 9.34 0 9 C0 6.03 0 3.06 0 0 Z " fill="#0B253A" transform="translate(312,538)"/>
<path d="M0 0 C28.71 0 57.42 0 87 0 C87 0.66 87 1.32 87 2 C75.95199298 2.15365584 64.90392755 2.30183763 53.85575294 2.4429636 C48.72605993 2.5086622 43.5964067 2.57627104 38.46679688 2.64819336 C33.51965701 2.71748785 28.5724756 2.78183265 23.62522507 2.84269524 C21.73449731 2.86683531 19.84379174 2.89278154 17.95311356 2.92053413 C15.31203943 2.95899783 12.67096046 2.99113185 10.02978516 3.02172852 C9.24216293 3.03467453 8.45454071 3.04762054 7.64305115 3.06095886 C2.22810432 3.11405216 2.22810432 3.11405216 0 2 C0 1.34 0 0.68 0 0 Z " fill="#020F23" transform="translate(500,449)"/>
<path d="M0 0 C0.66 0 1.32 0 2 0 C2.29132813 0.76183594 2.58265625 1.52367187 2.8828125 2.30859375 C7.45091075 13.8150299 12.99862942 22.49897206 23 30 C23.64839844 30.48726562 24.29679687 30.97453125 24.96484375 31.4765625 C25.69832031 31.99992188 26.43179687 32.52328125 27.1875 33.0625 C27.86167969 33.54847656 28.53585937 34.03445313 29.23046875 34.53515625 C36.91339284 38.59876208 45.06907978 39.56493972 53.625 40.1875 C54.62917969 40.26935547 55.63335937 40.35121094 56.66796875 40.43554688 C59.11138701 40.6333474 61.55512122 40.82133331 64 41 C64 41.33 64 41.66 64 42 C50.2537813 44.79220067 35.69354307 42.29126811 23.74609375 35.01953125 C13.65789894 27.88582654 6.89541542 19.28981464 2 8 C1.62617188 7.14019531 1.25234375 6.28039062 0.8671875 5.39453125 C0 3 0 3 0 0 Z " fill="#09243D" transform="translate(352,535)"/>
<path d="M0 0 C0.87128036 0.04106369 1.74256073 0.08212738 2.64024353 0.12443542 C4.47687032 0.21301435 6.31334381 0.30482355 8.1496582 0.3996582 C10.95807934 0.5426244 13.7669261 0.66934016 16.57617188 0.79492188 C18.36333017 0.88312902 20.15044172 0.97228944 21.9375 1.0625 C23.19543114 1.11734306 23.19543114 1.11734306 24.47877502 1.17329407 C25.26316452 1.2164122 26.04755402 1.25953033 26.85571289 1.30395508 C27.88566124 1.35511223 27.88566124 1.35511223 28.93641663 1.40730286 C31.21191564 1.78135725 32.89734581 2.61343675 34.90234375 3.73046875 C33.45504883 3.7147583 33.45504883 3.7147583 31.97851562 3.69873047 C14.49263655 3.52567198 -2.81841836 3.48364437 -20.234375 5.29296875 C-24.87744283 5.76661903 -29.43235039 5.80609681 -34.09765625 5.73046875 C-30.13292944 3.56298192 -26.28622917 3.08383085 -21.84765625 2.60546875 C-21.10257812 2.51910156 -20.3575 2.43273437 -19.58984375 2.34375 C-17.75987779 2.13260008 -15.92885746 1.9306233 -14.09765625 1.73046875 C-14.09765625 1.40046875 -14.09765625 1.07046875 -14.09765625 0.73046875 C-9.34873308 -0.54035294 -4.85514546 -0.24742852 0 0 Z " fill="#258356" transform="translate(465.09765625,294.26953125)"/>
<path d="M0 0 C4.92272397 0.57240976 8.55402921 2.79527814 12.75 5.25 C14.1717895 6.06655514 15.59366404 6.88296223 17.015625 7.69921875 C17.69818359 8.09415527 18.38074219 8.4890918 19.08398438 8.89599609 C21.5411971 10.31183656 24.01782391 11.69097913 26.5 13.0625 C27.1909375 13.44535156 27.881875 13.82820312 28.59375 14.22265625 C29.0578125 14.47917969 29.521875 14.73570312 30 15 C30 16.32 30 17.64 30 19 C29.34 19 28.68 19 28 19 C27.76539063 19.71542969 27.53078125 20.43085937 27.2890625 21.16796875 C25.77628441 24.49149637 23.86191333 26.64795001 21.375 29.3125 C20.55773437 30.19550781 19.74046875 31.07851563 18.8984375 31.98828125 C18.27195312 32.65214844 17.64546875 33.31601562 17 34 C16.34 33.67 15.68 33.34 15 33 C15.44730469 32.5153125 15.89460938 32.030625 16.35546875 31.53125 C16.96003906 30.8609375 17.56460937 30.190625 18.1875 29.5 C18.77917969 28.8503125 19.37085938 28.200625 19.98046875 27.53125 C22.63431938 24.20495366 24.80534739 20.64007504 27 17 C26.21761963 16.5560791 25.43523926 16.1121582 24.62915039 15.65478516 C21.73246941 14.00785144 18.83860742 12.35617169 15.9465332 10.70117188 C14.69340166 9.98537509 13.43917199 9.27149728 12.18383789 8.55957031 C10.38136468 7.53691068 8.58293177 6.50745256 6.78515625 5.4765625 C5.70113525 4.85861816 4.61711426 4.24067383 3.50024414 3.60400391 C1 2 1 2 0 0 Z " fill="#0A253C" transform="translate(454,552)"/>
<path d="M0 0 C0.66 0 1.32 0 2 0 C2.16825135 4.22910518 2.33432435 8.45829319 2.5 12.6875 C2.54769531 13.88568359 2.59539063 15.08386719 2.64453125 16.31835938 C2.68964844 17.47529297 2.73476563 18.63222656 2.78125 19.82421875 C2.8440918 21.41882935 2.8440918 21.41882935 2.90820312 23.0456543 C2.99067115 25.69976479 3.01717131 28.34488603 3 31 C3.66 31.33 4.32 31.66 5 32 C4.67 32.99 4.34 33.98 4 35 C-0.08278034 36.08318662 -3.17878835 35.83473185 -7.3125 35.0625 C-8.38113281 34.86785156 -9.44976563 34.67320312 -10.55078125 34.47265625 C-11.76314453 34.23869141 -11.76314453 34.23869141 -13 34 C-13 33.67 -13 33.34 -13 33 C-8.71 33 -4.42 33 0 33 C0 22.11 0 11.22 0 0 Z " fill="#061B2F" transform="translate(795,416)"/>
<path d="M0 0 C-1.16402344 0.56654297 -1.16402344 0.56654297 -2.3515625 1.14453125 C-14.63575089 7.40389694 -25.18479762 15.24158007 -34.1328125 25.80859375 C-35.99064701 27.98902295 -37.95036534 30.00046752 -40 32 C-38.78227686 23.43534727 -29.07111606 15.65248071 -22.5 10.625 C-5.8970319 -1.76910957 -5.8970319 -1.76910957 0 0 Z " fill="#0A2337" transform="translate(367,421)"/>
<path d="M0 0 C0.33 0.66 0.66 1.32 1 2 C1.66 2 2.32 2 3 2 C2.83113281 2.75152344 2.66226563 3.50304687 2.48828125 4.27734375 C1.68694188 10.38675511 2.07530907 16.52954184 2.30273438 22.67773438 C2.32013672 23.67224609 2.33753906 24.66675781 2.35546875 25.69140625 C2.38278076 26.59060791 2.41009277 27.48980957 2.43823242 28.41625977 C1.86371142 31.80353316 0.28210988 33.49815852 -2 36 C-1.88205038 31.03360043 -1.75782482 26.06741349 -1.62768555 21.10131836 C-1.58427561 19.41060701 -1.54260511 17.71985009 -1.50268555 16.02905273 C-1.44512906 13.60386394 -1.38139351 11.17890585 -1.31640625 8.75390625 C-1.29969376 7.99348526 -1.28298126 7.23306427 -1.26576233 6.44960022 C-1.11387171 1.11387171 -1.11387171 1.11387171 0 0 Z " fill="#0B2943" transform="translate(637,416)"/>
<path d="M0 0 C6.33667659 0.71543123 10.27193898 7.38095585 14 12 C16.18099963 15.24573961 18.15941231 18.55076859 20 22 C16.63871906 25.65786455 13.65502263 28.1784694 9 30 C8.01 29.67 7.02 29.34 6 29 C9.3 27.02 12.6 25.04 16 23 C14.92053268 18.68213073 13.49501623 16.68780174 10.8125 13.1875 C10.40974854 12.65995117 10.00699707 12.13240234 9.59204102 11.58886719 C6.52675307 7.602832 3.33447836 3.76197559 0 0 Z " fill="#09233A" transform="translate(468,437)"/>
<path d="M0 0 C0 0.66 0 1.32 0 2 C-1.43359375 3.15625 -1.43359375 3.15625 -3.4375 4.5 C-12.73495884 11.31265126 -18.41721399 19.52715891 -23 30 C-23.3403125 30.76441406 -23.680625 31.52882813 -24.03125 32.31640625 C-24.70856311 33.86858213 -25.35877848 35.43256963 -26 37 C-27.81199839 32.17940052 -25.62029493 28.69906924 -23.64453125 24.23046875 C-19.86021197 16.79666342 -9.65453261 0 0 0 Z " fill="#0A2237" transform="translate(379,456)"/>
<path d="M0 0 C0 3.55452315 -0.67278836 4.23815373 -2.80859375 6.9765625 C-3.39060547 7.729375 -3.97261719 8.4821875 -4.57226562 9.2578125 C-5.18779297 10.03898438 -5.80332031 10.82015625 -6.4375 11.625 C-7.04916016 12.41390625 -7.66082031 13.2028125 -8.29101562 14.015625 C-12.74749638 19.74749638 -12.74749638 19.74749638 -14 21 C-14.15873955 23.21687994 -14.25133837 25.43855298 -14.31640625 27.66015625 C-14.33718735 28.32462265 -14.35796844 28.98908905 -14.37937927 29.6736908 C-14.44493658 31.80318543 -14.50378785 33.93280668 -14.5625 36.0625 C-14.60567939 37.50326847 -14.64929349 38.94402399 -14.69335938 40.38476562 C-14.80062393 43.9230404 -14.90187371 47.46145869 -15 51 C-15.33 51 -15.66 51 -16 51 C-18.18740726 19.99209991 -18.18740726 19.99209991 -11.90332031 11.58032227 C-9.41011664 8.8202 -6.8461388 6.40373381 -4 4 C-2.65792378 2.67546726 -1.32045178 1.34609162 0 0 Z " fill="#04101F" transform="translate(508,557)"/>
<path d="M0 0 C0.99 0.33 1.98 0.66 3 1 C2.86722656 2.00675781 2.73445313 3.01351563 2.59765625 4.05078125 C1.20259714 15.02269698 0.46084961 25.95173696 0 37 C-0.66 36.67 -1.32 36.34 -2 36 C-2.41277905 11.22373113 -2.41277905 11.22373113 0 0 Z " fill="#0D293E" transform="translate(310,488)"/>
<path d="M0 0 C0 0.33 0 0.66 0 1 C-3.81567434 1.90278432 -7.27284462 2.07483212 -11.1875 2 C-19.81696822 1.92663576 -28.39072489 2.45337936 -37 3 C-37 2.34 -37 1.68 -37 1 C-24.39657682 -0.63756775 -12.67634136 -1.51037259 0 0 Z " fill="#0C2C46" transform="translate(421,412)"/>
<path d="M0 0 C0.66 0.33 1.32 0.66 2 1 C-1.75 6 -1.75 6 -2.94384766 7.58740234 C-5.36586338 10.81022327 -7.77244407 14.0436058 -10.1640625 17.2890625 C-10.69676758 18.00835937 -11.22947266 18.72765625 -11.77832031 19.46875 C-12.83101664 20.89037293 -13.87994013 22.31479849 -14.92480469 23.7421875 C-15.41110352 24.39703125 -15.89740234 25.051875 -16.3984375 25.7265625 C-16.82817871 26.31002441 -17.25791992 26.89348633 -17.70068359 27.49462891 C-19 29 -19 29 -22 31 C-20.67664613 27.31650902 -19.05971074 24.46285674 -16.69921875 21.34765625 C-16.05146484 20.48849609 -15.40371094 19.62933594 -14.73632812 18.74414062 C-14.06021484 17.85919922 -13.38410156 16.97425781 -12.6875 16.0625 C-12.02298828 15.18142578 -11.35847656 14.30035156 -10.67382812 13.39257812 C-7.22087313 8.83303815 -3.70861056 4.35421008 0 0 Z " fill="#082037" transform="translate(568,476)"/>
<path d="M0 0 C0.99 0.33 1.98 0.66 3 1 C1.0279763 2.9720237 -0.94467084 4.94332204 -2.921875 6.91015625 C-4.45631222 8.45324631 -5.95673701 10.03033217 -7.4375 11.625 C-12.3251508 16.15501781 -17.2997321 20.00911531 -24 21 C-24 20.34 -24 19.68 -24 19 C-23.28714844 18.63648438 -22.57429688 18.27296875 -21.83984375 17.8984375 C-12.78709293 13.14665712 -6.40179181 7.92602795 0 0 Z " fill="#092339" transform="translate(450,552)"/>
<path d="M0 0 C0 3.63274905 -1.05096594 5.30379731 -2.75 8.5 C-5.67652821 14.20120825 -7.96701553 19.93036848 -10 26 C-10.4125 27.216875 -10.825 28.43375 -11.25 29.6875 C-11.4975 30.450625 -11.745 31.21375 -12 32 C-12.33 32 -12.66 32 -13 32 C-12.78871049 25.97824892 -11.42894461 20.95095644 -9.1875 15.375 C-8.8150415 14.44385376 -8.8150415 14.44385376 -8.43505859 13.49389648 C-3.56759939 1.7837997 -3.56759939 1.7837997 0 0 Z " fill="#0A2339" transform="translate(325,455)"/>
<path d="M0 0 C0 0.66 0 1.32 0 2 C-10.0161562 5.92790439 -18.12570334 7.75399592 -29 7 C-29 6.67 -29 6.34 -29 6 C-27.33324219 5.72736328 -27.33324219 5.72736328 -25.6328125 5.44921875 C-18.20591289 4.20430505 -10.94670755 2.94615433 -3.78515625 0.55078125 C-2 0 -2 0 0 0 Z " fill="#092033" transform="translate(440,606)"/>
<path d="M0 0 C1.9375 0.375 1.9375 0.375 4 1 C4.33 1.66 4.66 2.32 5 3 C1.96296132 4.01444466 -1.08027077 5.00890046 -4.125 6 C-5.40890625 6.42925781 -5.40890625 6.42925781 -6.71875 6.8671875 C-11.28278909 8.3417232 -15.13792456 9.38258954 -20 9 C-19 7 -19 7 -17.25 6.34570312 C-16.13625 6.06629883 -16.13625 6.06629883 -15 5.78125 C-14.195625 5.57113281 -13.39125 5.36101563 -12.5625 5.14453125 C-10.85416667 4.71484375 -9.14583333 4.28515625 -7.4375 3.85546875 C-6.633125 3.64535156 -5.82875 3.43523438 -5 3.21875 C-4.2575 3.03248047 -3.515 2.84621094 -2.75 2.65429688 C-0.79017885 2.14799774 -0.79017885 2.14799774 0 0 Z " fill="#268359" transform="translate(544,712)"/>
<path d="M0 0 C0.66 0.33 1.32 0.66 2 1 C-14.22710163 22.61355082 -14.22710163 22.61355082 -19 25 C-17.32916518 20.99776777 -14.56704584 17.97893031 -11.75 14.75 C-7.63109362 9.96360019 -3.71064131 5.11466775 0 0 Z " fill="#20724B" transform="translate(654,632)"/>
<path d="M0 0 C0 3.43374546 -0.51582672 4.06340021 -2.51953125 6.72265625 C-3.04740234 7.42583984 -3.57527344 8.12902344 -4.11914062 8.85351562 C-4.67794922 9.58248047 -5.23675781 10.31144531 -5.8125 11.0625 C-6.63331055 12.16174805 -6.63331055 12.16174805 -7.47070312 13.28320312 C-9.87181237 16.45266733 -11.65386273 18.76924182 -15 21 C-13.39970226 16.08479981 -10.55282323 12.34409627 -7.5 8.25 C-7.00113281 7.56550781 -6.50226562 6.88101562 -5.98828125 6.17578125 C-2.26221546 1.13110773 -2.26221546 1.13110773 0 0 Z " fill="#082037" transform="translate(585,454)"/>
<path d="M0 0 C0.66 0.33 1.32 0.66 2 1 C-3.59040593 6.41420402 -9.67301944 11.17842985 -17 14 C-19.328125 13.65625 -19.328125 13.65625 -21 13 C-20.154375 12.56429687 -19.30875 12.12859375 -18.4375 11.6796875 C-11.89290923 8.24377734 -5.72398363 4.72098952 0 0 Z " fill="#0A2237" transform="translate(462,592)"/>
<path d="M0 0 C1.65 0.99 3.3 1.98 5 3 C4.12429445 7.40785758 1.68803513 10.30710183 -1.0625 13.75 C-1.53494141 14.35199219 -2.00738281 14.95398438 -2.49414062 15.57421875 C-3.65690401 17.05409943 -4.8276766 18.52768096 -6 20 C-6.99 19.67 -7.98 19.34 -9 19 C-8.19433594 18.09636719 -7.38867188 17.19273437 -6.55859375 16.26171875 C-5.51769432 15.07077976 -4.47735871 13.8793478 -3.4375 12.6875 C-2.90447266 12.09259766 -2.37144531 11.49769531 -1.82226562 10.88476562 C-0.46886798 9.32180963 0.7744864 7.66512254 2 6 C1.2236068 2.9254644 1.2236068 2.9254644 -1 1 C-0.67 0.67 -0.34 0.34 0 0 Z " fill="#28845A" transform="translate(608,339)"/>
<path d="M0 0 C0.33 0.66 0.66 1.32 1 2 C-0.86172379 6.53676036 -3.36124282 9.80770969 -6.6875 13.375 C-7.49574219 14.24898437 -8.30398438 15.12296875 -9.13671875 16.0234375 C-9.75160156 16.67570313 -10.36648438 17.32796875 -11 18 C-11.66 17.67 -12.32 17.34 -13 17 C-12.56429688 16.52691406 -12.12859375 16.05382812 -11.6796875 15.56640625 C-7.26689603 10.66648845 -3.52096516 5.57163718 0 0 Z " fill="#081E30" transform="translate(482,568)"/>
<path d="M0 0 C0.66 0 1.32 0 2 0 C2.33773438 0.81984375 2.67546875 1.6396875 3.0234375 2.484375 C3.46945312 3.56203125 3.91546875 4.6396875 4.375 5.75 C4.81585938 6.81734375 5.25671875 7.8846875 5.7109375 8.984375 C6.89930288 11.90886126 6.89930288 11.90886126 8.2265625 14.203125 C9 16 9 16 8 19 C3.98589628 13.55228781 0 6.91256153 0 0 Z " fill="#082137" transform="translate(352,535)"/>
<path d="M0 0 C1.32 0.33 2.64 0.66 4 1 C0.32167983 5.52615993 -3.41086363 9.39424999 -8 13 C-8 10 -8 10 -6.25 8.02734375 C-5.5075 7.33769531 -4.765 6.64804687 -4 5.9375 C-2.63152519 4.66168234 -1.28944398 3.35564311 0 2 C0 1.34 0 0.68 0 0 Z " fill="#2B885E" transform="translate(632,656)"/>
<path d="M0 0 C0.66 0 1.32 0 2 0 C0.53167985 4.40496044 -2.44518044 5.44016221 -6.34375 7.703125 C-9.70288352 9.34317254 -12.29104646 9.83874115 -16 10 C-12.93690154 7.56989338 -9.76259336 5.70829394 -6.3125 3.875 C-2.9442511 2.23730811 -2.9442511 2.23730811 0 0 Z " fill="#071D31" transform="translate(471,467)"/>
<path d="M0 0 C3.45201639 1.47721422 5.64961936 3.43794001 8.25 6.125 C8.95640625 6.84945312 9.6628125 7.57390625 10.390625 8.3203125 C11.18726563 9.15175781 11.18726563 9.15175781 12 10 C11.34 10.66 10.68 11.32 10 12 C8.32737283 10.38113585 6.66204463 8.7547271 5 7.125 C4.071875 6.22007812 3.14375 5.31515625 2.1875 4.3828125 C0 2 0 2 0 0 Z " fill="#268056" transform="translate(288,682)"/>
<path d="M0 0 C0.33 0.99 0.66 1.98 1 3 C-0.52699572 5.37171676 -2.05835234 7.49659568 -3.8125 9.6875 C-4.50956055 10.59725586 -4.50956055 10.59725586 -5.22070312 11.52539062 C-6.42530665 13.06182181 -7.70772733 14.53653774 -9 16 C-9.66 16 -10.32 16 -11 16 C-9.32076975 12.19866558 -6.88537166 9.02917298 -4.375 5.75 C-3.95476563 5.19570313 -3.53453125 4.64140625 -3.1015625 4.0703125 C-2.07061281 2.71133337 -1.03570089 1.35536165 0 0 Z " fill="#081F35" transform="translate(555,556)"/>
<path d="M0 0 C0.66 0.66 1.32 1.32 2 2 C-1.63 4.31 -5.26 6.62 -9 9 C-9.66 8.34 -10.32 7.68 -11 7 C-7.37 4.69 -3.74 2.38 0 0 Z " fill="#268358" transform="translate(601,685)"/>
<path d="M0 0 C0.99 0.33 1.98 0.66 3 1 C0.36 4.63 -2.28 8.26 -5 12 C-6 8 -6 8 -4.78515625 5.859375 C-4.21667969 5.16328125 -3.64820313 4.4671875 -3.0625 3.75 C-2.49660156 3.04359375 -1.93070313 2.3371875 -1.34765625 1.609375 C-0.90292969 1.07828125 -0.45820312 0.5471875 0 0 Z " fill="#09243C" transform="translate(624,463)"/>
<path d="M0 0 C0.66 1.32 1.32 2.64 2 4 C0.35 5.32 -1.3 6.64 -3 8 C-3.66 7.67 -4.32 7.34 -5 7 C-3.47793991 4.37098712 -2.15634036 2.15634036 0 0 Z " fill="#0B2F4C" transform="translate(469,583)"/>
<path d="M0 0 C1 4 1 4 0.00390625 5.703125 C-1.33072917 7.13541667 -2.66536458 8.56770833 -4 10 C-4.99 9.67 -5.98 9.34 -7 9 C-4.69 6.03 -2.38 3.06 0 0 Z " fill="#0B263E" transform="translate(499,567)"/>
<path d="M0 0 C1.43655854 -0.08131463 2.8744483 -0.13933559 4.3125 -0.1875 C5.51326172 -0.23970703 5.51326172 -0.23970703 6.73828125 -0.29296875 C9 0 9 0 12 3 C8.04 2.67 4.08 2.34 0 2 C0 1.34 0 0.68 0 0 Z " fill="#0D2F49" transform="translate(384,611)"/>
<path d="M0 0 C0 0.66 0 1.32 0 2 C-1.65 2.33 -3.3 2.66 -5 3 C-5.33 2.34 -5.66 1.68 -6 1 C-8.52733235 0.34444881 -8.52733235 0.34444881 -11 0 C-7.07632508 -2.82504594 -4.32061114 -1.49559616 0 0 Z " fill="#0C2C47" transform="translate(427,452)"/>
<path d="M0 0 C0 3.23830467 -0.29194726 4.31591712 -2 7 C-4.625 9.25 -4.625 9.25 -7 11 C-5.5140084 6.40693504 -3.14985318 3.56430755 0 0 Z " fill="#3BB582" transform="translate(659,628)"/>
<path d="M0 0 C0.66 0.66 1.32 1.32 2 2 C-2.625 7.875 -2.625 7.875 -6 9 C-4.47291037 5.56404834 -2.40072955 2.88087546 0 0 Z " fill="#0B2840" transform="translate(513,549)"/>
<path d="M0 0 C-0.33 0.66 -0.66 1.32 -1 2 C-3.06640625 2.4140625 -3.06640625 2.4140625 -5.5625 2.625 C-6.38878906 2.69976563 -7.21507812 2.77453125 -8.06640625 2.8515625 C-9.02353516 2.92503906 -9.02353516 2.92503906 -10 3 C-9 1 -9 1 -7.25 0.375 C-4.79549443 -0.03408426 -2.4840589 -0.06900164 0 0 Z " fill="#207950" transform="translate(534,718)"/>
<path d="M0 0 C3 1 3 1 4 3 C2.02 3.66 0.04 4.32 -2 5 C-1.34 3.35 -0.68 1.7 0 0 Z " fill="#0C3252" transform="translate(381,452)"/>
<path d="M0 0 C0.33 0.99 0.66 1.98 1 3 C-0.40445835 5.2636564 -2.1967913 7.0208685 -4 9 C-4.33 8.01 -4.66 7.02 -5 6 C-3.59554165 3.7363436 -1.8032087 1.9791315 0 0 Z " fill="#247D53" transform="translate(303,375)"/>
<path d="M0 0 C0.66 0.66 1.32 1.32 2 2 C-0.31 3.65 -2.62 5.3 -5 7 C-5 6.01 -5 5.02 -5 4 C-2.5 1.8125 -2.5 1.8125 0 0 Z " fill="#29855A" transform="translate(313,314)"/>
<path d="M0 0 C1.32 0.33 2.64 0.66 4 1 C3.67 1.66 3.34 2.32 3 3 C2.01 2.67 1.02 2.34 0 2 C0 1.34 0 0.68 0 0 Z " fill="#154266" transform="translate(417,453)"/>
<path d="M0 0 C0.99 0.495 0.99 0.495 2 1 C1.67 1.99 1.34 2.98 1 4 C0.67 2.68 0.34 1.36 0 0 Z " fill="#369970" transform="translate(235,604)"/>
<path d="M0 0 C0.66 1.32 1.32 2.64 2 4 C1.34 3.67 0.68 3.34 0 3 C0 2.01 0 1.02 0 0 Z " fill="#369A71" transform="translate(227,580)"/>
<path d="M0 0 C4 1 4 1 4 1 Z " fill="#37A378" transform="translate(403,712)"/>
<path d="M0 0 C3 1 3 1 3 1 Z " fill="#1B4562" transform="translate(413,615)"/>
<path d="M0 0 C0.33 0.66 0.66 1.32 1 2 C0.34 1.67 -0.32 1.34 -1 1 C-0.67 0.67 -0.34 0.34 0 0 Z " fill="#1C4D6A" transform="translate(313,552)"/>
<path d="M0 0 C3 1 3 1 3 1 Z " fill="#3B9F79" transform="translate(602,373)"/>
<path d="M0 0 C3 1 3 1 3 1 Z " fill="#3AA778" transform="translate(488,299)"/>
<path d="M0 0 C2 1 2 1 2 1 Z " fill="#399D70" transform="translate(481,765)"/>
<path d="M0 0 C2 1 2 1 2 1 Z " fill="#389D71" transform="translate(415,758)"/>
<path d="M0 0 C2 1 2 1 2 1 Z " fill="#379C70" transform="translate(386,749)"/>
<path d="M0 0 C2 1 2 1 2 1 Z " fill="#38A277" transform="translate(438,720)"/>
<path d="M0 0 C2 1 2 1 2 1 Z " fill="#39A579" transform="translate(593,688)"/>
<path d="M0 0 C2 1 2 1 2 1 Z " fill="#3AA278" transform="translate(604,680)"/>
<path d="" fill="#369A71" transform="translate(0,0)"/>
<path d="M0 0 C2 1 2 1 2 1 Z " fill="#1B4A66" transform="translate(377,612)"/>
<path d="M0 0 C2 1 2 1 2 1 Z " fill="#1C4A6B" transform="translate(364,607)"/>
<path d="" fill="#154162" transform="translate(0,0)"/>
<path d="M0 0 C2 1 2 1 2 1 Z " fill="#174568" transform="translate(576,571)"/>
<path d="" fill="#389D72" transform="translate(0,0)"/>
<path d="" fill="#20556A" transform="translate(0,0)"/>
<path d="" fill="#16405C" transform="translate(0,0)"/>
<path d="" fill="#17405E" transform="translate(0,0)"/>
<path d="M0 0 C2 1 2 1 2 1 Z " fill="#1B4A68" transform="translate(368,416)"/>
<path d="M0 0 C2 1 2 1 2 1 Z " fill="#379477" transform="translate(675,398)"/>
<path d="M0 0 C2 1 2 1 2 1 Z " fill="#3AAA7C" transform="translate(562,317)"/>
<path d="" fill="#379B6F" transform="translate(0,0)"/>
<path d="" fill="#389E71" transform="translate(0,0)"/>
<path d="" fill="#379972" transform="translate(0,0)"/>
<path d="" fill="#379C70" transform="translate(0,0)"/>
<path d="" fill="#369970" transform="translate(0,0)"/>
<path d="" fill="#3A986E" transform="translate(0,0)"/>
<path d="" fill="#399B70" transform="translate(0,0)"/>
<path d="" fill="#349A70" transform="translate(0,0)"/>
<path d="" fill="#3A9D72" transform="translate(0,0)"/>
<path d="" fill="#39A677" transform="translate(0,0)"/>
<path d="" fill="#3AA777" transform="translate(0,0)"/>
<path d="" fill="#3AA879" transform="translate(0,0)"/>
<path d="" fill="#3AA678" transform="translate(0,0)"/>
<path d="" fill="#3AA779" transform="translate(0,0)"/>
<path d="" fill="#359A6E" transform="translate(0,0)"/>
<path d="" fill="#399B70" transform="translate(0,0)"/>
<path d="" fill="#399B71" transform="translate(0,0)"/>
<path d="" fill="#3D9D70" transform="translate(0,0)"/>
<path d="" fill="#39A377" transform="translate(0,0)"/>
<path d="" fill="#3B9E73" transform="translate(0,0)"/>
<path d="" fill="#39A279" transform="translate(0,0)"/>
<path d="" fill="#39A177" transform="translate(0,0)"/>
<path d="" fill="#37A277" transform="translate(0,0)"/>
<path d="" fill="#3AA579" transform="translate(0,0)"/>
<path d="" fill="#39A477" transform="translate(0,0)"/>
<path d="" fill="#39996F" transform="translate(0,0)"/>
<path d="" fill="#3DA379" transform="translate(0,0)"/>
<path d="" fill="#36996F" transform="translate(0,0)"/>
<path d="" fill="#379B6E" transform="translate(0,0)"/>
<path d="" fill="#37976E" transform="translate(0,0)"/>
<path d="" fill="#389970" transform="translate(0,0)"/>
<path d="" fill="#3A9D78" transform="translate(0,0)"/>
<path d="" fill="#37936F" transform="translate(0,0)"/>
<path d="" fill="#369D72" transform="translate(0,0)"/>
<path d="" fill="#399D70" transform="translate(0,0)"/>
<path d="" fill="#369871" transform="translate(0,0)"/>
<path d="" fill="#379B71" transform="translate(0,0)"/>
<path d="" fill="#369A70" transform="translate(0,0)"/>
<path d="" fill="#359C72" transform="translate(0,0)"/>
<path d="" fill="#379C73" transform="translate(0,0)"/>
<path d="" fill="#1B4666" transform="translate(0,0)"/>
<path d="" fill="#1D4663" transform="translate(0,0)"/>
<path d="" fill="#1E4967" transform="translate(0,0)"/>
<path d="" fill="#399E75" transform="translate(0,0)"/>
<path d="" fill="#1B4765" transform="translate(0,0)"/>
<path d="" fill="#1D4761" transform="translate(0,0)"/>
<path d="" fill="#399D78" transform="translate(0,0)"/>
<path d="" fill="#194561" transform="translate(0,0)"/>
<path d="" fill="#389A71" transform="translate(0,0)"/>
<path d="" fill="#38A27B" transform="translate(0,0)"/>
<path d="" fill="#399B70" transform="translate(0,0)"/>
<path d="" fill="#1A4B6A" transform="translate(0,0)"/>
<path d="" fill="#3A9F79" transform="translate(0,0)"/>
<path d="" fill="#399D78" transform="translate(0,0)"/>
<path d="" fill="#1B4C6B" transform="translate(0,0)"/>
<path d="" fill="#1C4966" transform="translate(0,0)"/>
<path d="" fill="#1A4A68" transform="translate(0,0)"/>
<path d="" fill="#1B4A67" transform="translate(0,0)"/>
<path d="" fill="#1A4966" transform="translate(0,0)"/>
<path d="" fill="#1B4C6A" transform="translate(0,0)"/>
<path d="" fill="#379A71" transform="translate(0,0)"/>
<path d="" fill="#173953" transform="translate(0,0)"/>
<path d="" fill="#173C59" transform="translate(0,0)"/>
<path d="" fill="#173E60" transform="translate(0,0)"/>
<path d="" fill="#164166" transform="translate(0,0)"/>
<path d="" fill="#144367" transform="translate(0,0)"/>
<path d="" fill="#174365" transform="translate(0,0)"/>
<path d="" fill="#154568" transform="translate(0,0)"/>
<path d="" fill="#164469" transform="translate(0,0)"/>
<path d="" fill="#154468" transform="translate(0,0)"/>
<path d="" fill="#16436A" transform="translate(0,0)"/>
<path d="" fill="#144263" transform="translate(0,0)"/>
<path d="" fill="#164366" transform="translate(0,0)"/>
<path d="" fill="#174769" transform="translate(0,0)"/>
<path d="" fill="#194568" transform="translate(0,0)"/>
<path d="" fill="#164568" transform="translate(0,0)"/>
<path d="" fill="#184667" transform="translate(0,0)"/>
<path d="" fill="#16405F" transform="translate(0,0)"/>
<path d="" fill="#144264" transform="translate(0,0)"/>
<path d="" fill="#1C4C6A" transform="translate(0,0)"/>
<path d="" fill="#1D4E6B" transform="translate(0,0)"/>
<path d="" fill="#144161" transform="translate(0,0)"/>
<path d="" fill="#1D4F69" transform="translate(0,0)"/>
<path d="" fill="#144064" transform="translate(0,0)"/>
<path d="" fill="#123E60" transform="translate(0,0)"/>
<path d="" fill="#1C4D6B" transform="translate(0,0)"/>
<path d="" fill="#164364" transform="translate(0,0)"/>
<path d="" fill="#3B9F7A" transform="translate(0,0)"/>
<path d="" fill="#164367" transform="translate(0,0)"/>
<path d="" fill="#379C73" transform="translate(0,0)"/>
<path d="" fill="#389A71" transform="translate(0,0)"/>
<path d="" fill="#1D4E66" transform="translate(0,0)"/>
<path d="" fill="#154468" transform="translate(0,0)"/>
<path d="" fill="#144365" transform="translate(0,0)"/>
<path d="" fill="#1E506B" transform="translate(0,0)"/>
<path d="" fill="#369C70" transform="translate(0,0)"/>
<path d="" fill="#164063" transform="translate(0,0)"/>
<path d="" fill="#399B71" transform="translate(0,0)"/>
<path d="" fill="#183958" transform="translate(0,0)"/>
<path d="" fill="#154264" transform="translate(0,0)"/>
<path d="" fill="#124166" transform="translate(0,0)"/>
<path d="" fill="#1C5069" transform="translate(0,0)"/>
<path d="" fill="#1B4E67" transform="translate(0,0)"/>
<path d="" fill="#1D4C69" transform="translate(0,0)"/>
<path d="" fill="#183B57" transform="translate(0,0)"/>
<path d="" fill="#133F63" transform="translate(0,0)"/>
<path d="" fill="#163F5B" transform="translate(0,0)"/>
<path d="" fill="#39A274" transform="translate(0,0)"/>
<path d="" fill="#104166" transform="translate(0,0)"/>
<path d="" fill="#16486C" transform="translate(0,0)"/>
<path d="" fill="#3CA27A" transform="translate(0,0)"/>
<path d="" fill="#124060" transform="translate(0,0)"/>
<path d="" fill="#133E62" transform="translate(0,0)"/>
<path d="" fill="#144162" transform="translate(0,0)"/>
<path d="" fill="#153E64" transform="translate(0,0)"/>
<path d="" fill="#124063" transform="translate(0,0)"/>
<path d="" fill="#174267" transform="translate(0,0)"/>
<path d="" fill="#154365" transform="translate(0,0)"/>
<path d="" fill="#174062" transform="translate(0,0)"/>
<path d="" fill="#164263" transform="translate(0,0)"/>
<path d="" fill="#143F5C" transform="translate(0,0)"/>
<path d="" fill="#3AA274" transform="translate(0,0)"/>
<path d="" fill="#1B4E6A" transform="translate(0,0)"/>
<path d="" fill="#399F73" transform="translate(0,0)"/>
<path d="" fill="#1B4C68" transform="translate(0,0)"/>
<path d="" fill="#133F5C" transform="translate(0,0)"/>
<path d="" fill="#184463" transform="translate(0,0)"/>
<path d="" fill="#1B496B" transform="translate(0,0)"/>
<path d="" fill="#1B4E6A" transform="translate(0,0)"/>
<path d="" fill="#1B4E6B" transform="translate(0,0)"/>
<path d="" fill="#183D59" transform="translate(0,0)"/>
<path d="" fill="#3B9E73" transform="translate(0,0)"/>
<path d="" fill="#1B3B4F" transform="translate(0,0)"/>
<path d="" fill="#245968" transform="translate(0,0)"/>
<path d="" fill="#21576D" transform="translate(0,0)"/>
<path d="" fill="#194764" transform="translate(0,0)"/>
<path d="" fill="#1A4869" transform="translate(0,0)"/>
<path d="" fill="#317770" transform="translate(0,0)"/>
<path d="" fill="#39A376" transform="translate(0,0)"/>
<path d="" fill="#2F726E" transform="translate(0,0)"/>
<path d="" fill="#32776C" transform="translate(0,0)"/>
<path d="" fill="#3BA475" transform="translate(0,0)"/>
<path d="" fill="#399277" transform="translate(0,0)"/>
<path d="" fill="#379679" transform="translate(0,0)"/>
<path d="" fill="#38957A" transform="translate(0,0)"/>
<path d="" fill="#3A9E75" transform="translate(0,0)"/>
<path d="" fill="#3BA079" transform="translate(0,0)"/>
<path d="" fill="#399E7E" transform="translate(0,0)"/>
<path d="" fill="#399A78" transform="translate(0,0)"/>
<path d="" fill="#379F79" transform="translate(0,0)"/>
<path d="" fill="#3CA27B" transform="translate(0,0)"/>
<path d="" fill="#3BA078" transform="translate(0,0)"/>
<path d="" fill="#3DA578" transform="translate(0,0)"/>
<path d="" fill="#3B9F79" transform="translate(0,0)"/>
<path d="" fill="#3C9C75" transform="translate(0,0)"/>
<path d="" fill="#399F73" transform="translate(0,0)"/>
<path d="" fill="#38A477" transform="translate(0,0)"/>
<path d="" fill="#399D74" transform="translate(0,0)"/>
<path d="" fill="#3CA87D" transform="translate(0,0)"/>
<path d="" fill="#3AA478" transform="translate(0,0)"/>
<path d="" fill="#39A277" transform="translate(0,0)"/>
<path d="" fill="#3CA87B" transform="translate(0,0)"/>
<path d="" fill="#3AA77B" transform="translate(0,0)"/>
<path d="" fill="#3CA77D" transform="translate(0,0)"/>
<path d="" fill="#3EAD80" transform="translate(0,0)"/>
<path d="" fill="#3AA67B" transform="translate(0,0)"/>
<path d="" fill="#3AA377" transform="translate(0,0)"/>
<path d="" fill="#3CA578" transform="translate(0,0)"/>
<path d="" fill="#3BA478" transform="translate(0,0)"/>
<path d="" fill="#3AA477" transform="translate(0,0)"/>
<path d="" fill="#348E68" transform="translate(0,0)"/>
<path d="" fill="#3BA679" transform="translate(0,0)"/>
<path d="" fill="#3BAB79" transform="translate(0,0)"/>
<path d="" fill="#3BA172" transform="translate(0,0)"/>
<path d="" fill="#3BA074" transform="translate(0,0)"/>
<path d="" fill="#3AA777" transform="translate(0,0)"/>
<path d="" fill="#3B9F74" transform="translate(0,0)"/>
<path d="" fill="#348E68" transform="translate(0,0)"/>
<path d="" fill="#38A377" transform="translate(0,0)"/>
<path d="" fill="#3AA175" transform="translate(0,0)"/>
<path d="" fill="#3CA577" transform="translate(0,0)"/>
<path d="" fill="#3AA277" transform="translate(0,0)"/>
<path d="" fill="#3B9F75" transform="translate(0,0)"/>
<path d="" fill="#399D71" transform="translate(0,0)"/>
<path d="" fill="#399D73" transform="translate(0,0)"/>
<path d="" fill="#37A074" transform="translate(0,0)"/>
<path d="" fill="#36A075" transform="translate(0,0)"/>
<path d="" fill="#389C70" transform="translate(0,0)"/>
<path d="" fill="#359F74" transform="translate(0,0)"/>
<path d="" fill="#39A074" transform="translate(0,0)"/>
<path d="" fill="#3A9C73" transform="translate(0,0)"/>
<path d="" fill="#39A377" transform="translate(0,0)"/>
<path d="" fill="#39A073" transform="translate(0,0)"/>
<path d="" fill="#3B9F73" transform="translate(0,0)"/>
<path d="" fill="#3AA174" transform="translate(0,0)"/>
<path d="" fill="#37A176" transform="translate(0,0)"/>
<path d="" fill="#399F74" transform="translate(0,0)"/>
</svg>
