<?xml version="1.0" standalone="no"?>
<!DOCTYPE svg PUBLIC "-//W3C//DTD SVG 20010904//EN"
 "http://www.w3.org/TR/2001/REC-SVG-20010904/DTD/svg10.dtd">
<svg version="1.0" xmlns="http://www.w3.org/2000/svg"
 width="1024.000000pt" height="1024.000000pt" viewBox="0 0 1024.000000 1024.000000"
 preserveAspectRatio="xMidYMid meet">

<g transform="translate(0.000000,1024.000000) scale(0.100000,-0.100000)"
fill="#000000" stroke="none">
<path d="M4174 9029 c-71 -27 -130 -82 -229 -213 -215 -287 -375 -627 -521
-1109 l-18 -59 -51 6 c-112 14 -427 26 -525 20 -327 -17 -636 -76 -845 -159
-169 -68 -235 -148 -222 -271 7 -69 37 -133 124 -264 181 -273 489 -570 811
-782 64 -42 125 -83 135 -90 17 -12 16 -18 -24 -108 -166 -380 -289 -910 -290
-1250 0 -177 23 -255 95 -318 101 -88 252 -76 556 45 360 143 670 338 1079
679 l25 22 61 -55 c389 -353 1078 -694 1400 -693 130 1 207 52 240 162 19 66
20 357 1 508 -7 58 -13 106 -12 107 1 1 24 -9 51 -21 129 -61 315 -108 488
-122 102 -8 98 1 63 -135 -27 -106 -72 -212 -112 -265 -42 -55 -32 -119 25
-148 74 -39 217 -27 385 31 130 45 192 77 327 168 132 90 228 173 315 278 l66
77 132 0 c363 0 629 85 895 285 268 202 436 472 513 825 21 98 22 128 23 460
0 299 -3 370 -18 450 -76 407 -271 720 -578 930 -196 134 -434 213 -729 240
-197 18 -1275 8 -1402 -13 -122 -21 -253 -57 -348 -98 -190 -80 -408 -241
-515 -380 -19 -23 -31 -27 -170 -43 -82 -9 -181 -24 -219 -32 -38 -8 -70 -13
-71 -12 -1 2 -14 50 -30 108 -124 458 -344 907 -555 1133 -115 123 -206 153
-326 106z m164 -263 c198 -209 422 -700 533 -1167 42 -176 43 -177 209 -141
122 26 343 59 490 72 316 28 733 -2 935 -66 78 -25 79 -28 42 -114 -92 -212
-306 -498 -510 -683 -164 -149 -392 -306 -539 -370 -64 -29 -93 -64 -85 -104
3 -16 37 -100 75 -188 169 -386 273 -809 288 -1175 6 -136 5 -146 -14 -170
l-20 -25 -114 28 c-368 93 -860 367 -1218 680 -144 125 -149 126 -257 26 -381
-354 -854 -642 -1238 -755 -44 -13 -94 -24 -111 -24 -53 0 -59 17 -58 174 3
363 130 867 323 1279 22 49 41 96 41 106 0 33 -38 67 -147 135 -124 77 -257
174 -400 293 -124 102 -371 354 -444 453 -65 87 -139 208 -139 227 0 48 287
132 615 179 164 24 571 24 780 0 158 -18 189 -16 203 12 5 9 28 83 51 163 72
256 152 461 273 703 95 189 239 411 311 479 43 40 67 35 125 -27z m3615 -750
c474 -93 795 -390 916 -849 41 -155 46 -213 45 -517 0 -333 -10 -409 -70 -590
-78 -235 -225 -426 -435 -566 -229 -153 -453 -214 -782 -214 -85 0 -163 -3
-172 -6 -8 -4 -40 -39 -70 -79 -74 -98 -221 -237 -332 -312 -125 -86 -312
-178 -328 -161 -3 3 6 34 19 70 24 64 59 232 70 333 12 120 -32 155 -196 155
-130 0 -233 14 -347 46 -99 28 -263 107 -336 162 -43 32 -53 46 -68 97 -63
205 -121 374 -157 460 -47 115 -55 97 74 170 334 188 687 549 891 912 139 249
145 387 19 474 -122 84 -435 148 -729 149 l-130 0 25 21 c63 51 198 134 271
166 92 40 242 80 344 92 39 5 367 8 730 7 578 -2 671 -5 748 -20z"/>
<path d="M4191 8014 c-11 -14 -23 -44 -26 -67 -3 -23 -5 -199 -3 -390 l3 -349
28 -24 c34 -29 76 -31 108 -5 l24 19 3 400 3 400 -27 21 c-38 30 -87 28 -113
-5z"/>
<path d="M5630 7088 c-45 -19 -382 -139 -530 -189 -172 -58 -184 -64 -199 -96
-16 -35 -14 -57 10 -87 15 -19 30 -26 55 -26 30 0 179 47 344 108 30 12 134
48 230 82 188 66 220 87 220 141 0 61 -65 95 -130 67z"/>
<path d="M2898 7044 c-50 -27 -48 -106 2 -131 22 -11 363 -117 562 -175 l78
-22 27 21 c35 25 44 85 17 114 -9 10 -65 34 -123 53 -162 53 -511 156 -524
156 -7 -1 -24 -7 -39 -16z"/>
<path d="M4193 7035 c-67 -29 -94 -126 -53 -192 45 -75 148 -84 207 -19 28 30
33 43 33 83 0 109 -90 170 -187 128z"/>
<path d="M3793 6790 c-42 -25 -63 -68 -63 -126 0 -41 5 -51 39 -85 34 -35 44
-39 87 -39 62 0 110 28 131 77 50 120 -85 240 -194 173z"/>
<path d="M4563 6783 c-35 -18 -73 -82 -73 -124 0 -68 69 -129 147 -129 83 0
146 88 122 169 -25 85 -118 125 -196 84z"/>
<path d="M3984 6376 c-88 -39 -110 -168 -37 -226 122 -96 278 34 203 169 -36
63 -100 85 -166 57z"/>
<path d="M4440 6373 c-23 -9 -60 -45 -76 -75 -57 -109 74 -231 186 -173 49 25
70 62 70 120 0 58 -21 95 -70 120 -29 15 -81 19 -110 8z"/>
<path d="M3752 6033 c-45 -40 -462 -563 -473 -592 -24 -61 49 -120 115 -95 9
4 125 141 257 306 224 280 241 303 235 332 -8 39 -33 64 -72 72 -26 5 -37 1
-62 -23z"/>
<path d="M4652 6020 c-32 -30 -29 -81 6 -122 304 -357 444 -517 457 -522 34
-13 67 -5 90 20 47 51 39 66 -137 272 -90 104 -194 226 -233 271 -38 46 -78
87 -87 92 -28 15 -73 10 -96 -11z"/>
<path d="M6050 3285 l0 -665 135 0 135 0 0 45 c0 25 3 45 6 45 3 0 24 -16 47
-35 50 -43 147 -75 226 -75 218 0 399 153 447 378 18 85 17 139 -1 227 -50
237 -226 385 -456 385 -89 0 -149 -19 -222 -69 l-47 -32 0 231 0 230 -135 0
-135 0 0 -665z m609 26 c154 -79 160 -331 10 -423 -157 -98 -349 14 -349 203
0 68 45 167 92 200 74 53 167 60 247 20z"/>
<path d="M8220 3285 l0 -665 140 0 140 0 0 665 0 665 -140 0 -140 0 0 -665z"/>
<path d="M3835 3589 c-81 -12 -121 -26 -178 -61 -79 -50 -134 -130 -151 -219
l-7 -37 58 -6 c32 -3 92 -8 133 -11 l75 -6 20 38 c28 53 75 75 146 70 31 -3
68 -12 82 -22 30 -19 57 -72 57 -112 l0 -29 -182 -11 c-206 -12 -265 -28 -335
-88 -60 -51 -86 -112 -86 -199 -1 -127 52 -209 173 -265 50 -24 66 -26 175
-26 104 0 127 4 172 24 28 12 59 31 69 42 25 28 34 23 34 -16 l0 -35 126 0
125 0 -3 353 -3 352 -33 67 c-55 113 -152 179 -284 193 -108 12 -124 12 -183
4z m235 -614 c0 -82 -59 -147 -147 -161 -95 -15 -163 25 -163 94 0 74 56 99
223 101 l87 1 0 -35z"/>
<path d="M4959 3590 c-65 -11 -129 -42 -163 -79 -17 -17 -33 -31 -38 -31 -4 0
-8 23 -8 50 l0 50 -130 0 -130 0 0 -480 0 -480 135 0 135 0 0 283 c0 286 6
344 38 381 28 31 73 48 124 48 60 0 94 -21 119 -75 17 -38 19 -69 19 -339 l0
-298 140 0 140 0 0 295 c0 324 2 340 58 387 66 56 164 44 210 -24 l27 -41 3
-309 3 -308 140 0 141 0 -4 343 c-5 317 -6 347 -27 409 -27 84 -89 156 -163
188 -40 18 -77 25 -148 28 -120 5 -193 -19 -258 -84 l-44 -43 -47 48 c-66 68
-170 99 -272 81z"/>
<path d="M1158 3575 c-150 -41 -277 -161 -328 -310 -26 -76 -35 -193 -21 -270
15 -84 75 -200 131 -256 179 -179 517 -187 698 -15 46 44 87 112 106 175 9 30
14 56 13 58 -2 1 -50 8 -108 13 -57 6 -114 13 -127 15 -16 3 -26 -3 -36 -23
-36 -68 -100 -106 -181 -105 -95 0 -174 51 -209 135 -22 52 -20 162 3 213 24
53 90 111 143 126 91 25 198 -21 235 -101 15 -34 22 -39 43 -35 14 2 68 9 120
16 128 15 120 11 109 60 -32 139 -160 264 -313 305 -63 17 -215 17 -278 -1z"/>
<path d="M2116 3580 c-140 -36 -249 -143 -263 -258 l-6 -50 54 -6 c30 -3 90
-8 134 -11 l81 -6 17 35 c30 64 138 97 205 62 43 -22 62 -50 71 -103 l8 -50
-75 -7 c-41 -3 -107 -6 -146 -6 -81 0 -179 -21 -234 -49 -128 -65 -178 -240
-108 -378 49 -98 130 -141 282 -150 77 -5 101 -2 159 17 37 12 82 36 101 52
l34 30 0 -41 0 -41 126 0 125 0 -3 353 -3 352 -33 67 c-40 81 -102 139 -181
169 -44 17 -83 22 -181 25 -69 2 -142 -1 -164 -6z m295 -620 c-4 -56 -22 -89
-67 -118 -96 -63 -245 -22 -244 67 1 69 73 101 220 98 l95 -2 -4 -45z"/>
<path d="M3246 3574 c-47 -17 -122 -77 -131 -104 -13 -40 -25 -18 -25 45 l0
66 -132 -3 -133 -3 -3 -477 -2 -478 140 0 140 0 0 253 c0 294 8 339 69 397 46
44 97 60 188 60 l70 0 6 68 c12 125 9 170 -12 182 -28 14 -129 11 -175 -6z"/>
<path d="M7498 3580 c-173 -44 -325 -211 -359 -395 -36 -194 45 -399 199 -502
80 -54 143 -73 257 -80 166 -10 294 34 390 131 61 63 118 169 136 253 14 70 7
208 -15 278 -24 78 -93 174 -163 227 -94 70 -156 90 -293 94 -63 2 -132 -1
-152 -6z m186 -251 c160 -40 223 -274 109 -400 -50 -55 -87 -72 -158 -73 -72
0 -128 26 -173 79 -58 71 -70 186 -27 271 32 64 60 90 121 114 58 23 71 23
128 9z"/>
<path d="M8898 3576 c-136 -39 -248 -164 -248 -277 0 -30 -2 -30 180 -44 l76
-6 14 32 c19 41 55 68 102 75 93 15 160 -26 177 -108 6 -28 10 -52 8 -54 -1
-2 -72 -6 -157 -9 -225 -9 -316 -37 -388 -119 -34 -39 -62 -119 -62 -176 0
-121 81 -228 203 -268 124 -41 279 -26 368 34 28 19 52 34 54 34 1 0 6 -16 9
-35 l7 -35 120 0 120 0 -3 343 c-3 332 -4 344 -27 402 -33 82 -115 164 -196
195 -75 29 -281 38 -357 16z m307 -575 c12 -21 -9 -95 -37 -127 -30 -34 -100
-64 -150 -64 -44 0 -104 29 -117 56 -27 60 -3 107 67 128 53 16 228 21 237 7z"/>
<path d="M7803 2299 c-12 -4 -28 -17 -35 -29 -16 -26 -24 -25 -60 5 -53 45
-126 25 -148 -40 -21 -64 25 -107 92 -84 31 10 46 10 72 1 71 -26 146 -4 164
47 22 62 -28 121 -85 100z"/>
<path d="M5213 2285 c-31 -21 -40 -78 -19 -110 38 -58 131 -53 160 9 18 37 14
59 -17 94 -25 27 -91 30 -124 7z"/>
<path d="M1732 2074 c-129 -64 -178 -223 -112 -360 58 -120 247 -172 372 -102
62 34 137 142 115 164 -3 3 -36 9 -73 14 l-67 8 -32 -34 c-26 -28 -40 -34 -72
-34 -50 0 -87 28 -103 76 -34 102 57 187 150 139 16 -8 31 -24 35 -35 5 -15
12 -19 31 -14 13 3 48 9 77 13 45 5 52 9 49 26 -5 31 -48 91 -84 118 -75 56
-199 65 -286 21z"/>
<path d="M2382 2074 c-96 -48 -149 -144 -139 -254 6 -65 26 -111 71 -158 123
-131 354 -97 436 64 34 67 35 179 3 240 -46 87 -130 133 -244 134 -61 0 -85
-5 -127 -26z m186 -130 c53 -37 66 -110 29 -165 -28 -42 -64 -56 -114 -43 -84
21 -110 136 -43 197 35 31 92 37 128 11z"/>
<path d="M3135 2083 c-16 -8 -38 -25 -47 -37 -17 -21 -18 -21 -18 12 l0 32
-75 0 -75 0 0 -250 0 -250 85 0 85 0 0 159 c0 145 2 161 21 185 15 19 30 26
54 26 58 0 65 -21 65 -207 l0 -163 80 0 80 0 0 153 c0 176 7 197 64 212 35 8
40 7 62 -18 23 -27 24 -34 24 -188 l0 -159 80 0 80 0 0 173 c0 187 -7 230 -47
277 -37 45 -74 60 -143 60 -60 0 -105 -15 -143 -48 -16 -14 -19 -13 -40 5 -12
11 -32 26 -44 32 -31 16 -113 13 -148 -6z"/>
<path d="M4755 2089 c-11 -7 -30 -21 -42 -32 l-23 -20 0 26 c0 27 0 27 -75 27
l-75 0 0 -250 0 -250 79 0 80 0 3 159 c3 153 4 161 27 185 16 17 35 26 55 26
67 0 76 -25 76 -214 l0 -156 81 0 81 0 -4 198 c-3 218 -9 240 -70 284 -26 18
-49 23 -103 26 -40 1 -78 -2 -90 -9z"/>
<path d="M5665 2076 c-99 -45 -153 -145 -141 -258 7 -68 25 -109 70 -156 98
-105 280 -109 380 -8 38 37 76 110 64 121 -2 2 -35 9 -73 15 l-69 11 -23 -30
c-49 -62 -149 -48 -179 26 -32 75 17 163 92 163 29 0 43 -7 68 -33 l32 -34 72
10 c72 10 73 10 67 36 -11 49 -59 104 -114 133 -71 37 -171 39 -246 4z"/>
<path d="M6300 2085 c-48 -22 -87 -62 -101 -102 -17 -54 -8 -63 62 -63 51 0
66 4 91 25 36 30 87 33 111 7 32 -35 22 -50 -40 -57 -195 -20 -253 -59 -253
-167 0 -82 53 -133 150 -145 69 -8 115 3 149 37 l30 30 3 -27 c3 -27 5 -28 76
-31 l74 -3 -4 188 c-3 215 -9 235 -88 288 -40 26 -54 30 -135 32 -66 3 -99 -1
-125 -12z m190 -306 c0 -30 -53 -79 -85 -79 -39 0 -65 18 -65 45 0 35 36 55
97 55 47 0 53 -2 53 -21z"/>
<path d="M6970 2085 c-103 -47 -154 -131 -154 -251 1 -58 6 -79 30 -124 31
-57 86 -105 135 -115 24 -6 27 -9 19 -25 -6 -10 -10 -30 -10 -44 0 -22 5 -25
43 -28 44 -3 61 -30 22 -36 -54 -8 -65 -13 -65 -31 0 -39 29 -54 93 -48 70 6
108 30 121 76 12 43 -6 78 -49 97 -38 15 -39 34 -2 34 33 1 99 34 129 66 30
32 62 100 53 113 -3 5 -34 14 -70 20 l-65 12 -37 -37 c-33 -33 -40 -36 -81
-31 -67 7 -97 42 -97 113 0 50 3 58 33 85 46 41 94 40 136 -4 l31 -32 70 10
c66 10 70 12 67 35 -6 40 -52 99 -101 128 -37 21 -59 27 -130 29 -62 3 -96 -1
-121 -12z"/>
<path d="M7622 2089 c-29 -7 -57 -24 -83 -50 -34 -34 -40 -45 -37 -77 l3 -37
63 -3 c58 -3 65 -1 83 23 26 32 80 34 109 5 20 -20 27 -50 13 -50 -5 0 -48 -5
-96 -10 -140 -16 -194 -54 -204 -144 -10 -89 49 -152 150 -163 61 -6 116 8
142 37 24 27 35 25 35 -5 0 -24 2 -25 71 -25 l71 0 -4 198 -3 199 -28 36 c-15
21 -42 45 -60 54 -38 20 -163 26 -225 12z m141 -361 c-25 -24 -88 -35 -108
-18 -19 16 -19 54 0 70 8 7 38 15 67 19 53 6 53 6 56 -23 2 -18 -3 -36 -15
-48z"/>
<path d="M8260 2085 c-101 -46 -155 -132 -154 -245 2 -162 131 -274 297 -256
140 14 237 116 238 250 2 105 -48 194 -135 238 -55 29 -195 36 -246 13z m186
-159 c28 -28 34 -41 34 -77 0 -107 -96 -155 -179 -90 -19 14 -25 30 -29 75 -4
53 -3 57 31 91 48 48 95 49 143 1z"/>
<path d="M3870 1903 c0 -167 2 -191 20 -228 45 -92 177 -122 269 -62 50 33 51
33 51 2 0 -24 2 -25 75 -25 l75 0 0 250 0 250 -79 0 -80 0 -3 -161 c-3 -155
-4 -161 -27 -180 -31 -25 -85 -25 -111 1 -18 18 -20 33 -20 180 l0 160 -85 0
-85 0 0 -187z"/>
<path d="M5190 1840 l0 -250 85 0 85 0 0 250 0 250 -85 0 -85 0 0 -250z"/>
</g>
</svg>
